<svg version="1.0" xmlns="http://www.w3.org/2000/svg" width="1200" height="1200"><path d="M667.04 420.924s14.406 43.246 14.406 39.127c0-4.127 10.297-55.601 13.39-56.627 3.093-1.025-16.492-31.915-10.296-46.33 6.178-14.424 9.266-23.678 9.266-23.678s-18.694-7.67-22.758-19.848c-4.051-12.186-17.398-25.449-17.398-25.449s-22.644 23.686-14.419 59.703c8.245 36.043 27.809 73.102 27.809 73.102zm-109.038 24.653c3.377-1.365 14.221.66 25.051.66 10.826 0 13.533 5.424 18.945 18.28 5.419 12.864 1.36 18.957-12.852 35.212-14.212 16.237-1.364 14.89 0 12.848 1.369-2.025 14.89-11.509 27.08-17.585 12.178-6.101 23.004-12.204 23.004-12.204l-.678 17.619s-19.623 19.619-27.755 24.364c-8.127 4.746-10.136 15.577-14.212 21.67-4.063 6.076-4.746 20.966-1.348 27.067 3.386 6.102 0 2.721-.678 8.797-.216 1.933-.835 5.271-1.411 8.924h18.301c4.649-3.678 11.051-9.593 8.136-6.22-1.008 1.195-1.979 3.433-2.89 6.22h8.809c.352-1.508.661-2.753.877-3.508.852-3.016 3.081-1.881 5.11 3.508h54.974c3.496-9.482 4.916-25.271 7.611-35.999 3.377-13.551-6.097-21.652-16.262-35.203-10.149-13.534-25.712-32.483-29.771-37.238-4.072-4.729-10.839-35.194-12.868-38.576-2.03-3.381-33.839-39.262-38.589-46.034l-6.75-4.05s-8.131 8.787-15.576 9.466c-7.466.686-14.916 0-20.314 4.067-5.419 4.068-20.309 16.255-20.309 16.255s20.98 23.007 24.365 21.66zM704.9 539.669c1.487 5.195 5.834 28.772 10.343 51.559H818.2c4.013-15.372 6.784-28.33 6.5-30.584-.665-5.415 4.768-16.254 2.051-17.601-2.716-1.364-22.335-17.601-22.335-17.601s26.394 2.721 31.818 3.39c5.407.686 2.695-6.763 2.03-13.542-.694-6.763-8.136-16.246-9.5-22.331-1.326-6.101-2.694-20.322 0-28.44 2.716-8.119 10.847-33.839 16.945-39.262.835-.72 1.585-1.687 2.268-2.78 4.881 1.407 17.017 5.576 29.534 14.974 16.246 12.186 3.39 2.704 2.046-5.406-1.36-8.127-18.297-20.313-22.347-24.381l-6.169 7.611c1.974-6.593 2.602-14.102 2.106-17.094-.678-4.05-.678-11.508-.331-17.22-32.801 1.737-105.262-5.788-105.262-5.788s-46.716-4.746-41.979 2.703c4.742 7.449 29.792 12.864 30.453 16.255.686 3.381-18.263 6.762-25.025 7.44-6.784.678 4.72 7.449 5.403 9.475.669 2.033-10.149 14.906-20.314 19.636-10.135 4.745 2.716 20.305 6.098 66.33 3.383 46.03-.002 33.175 2.71 42.657zm244.362-36.567c1.374 5.424-21.644-12.856-21.644-12.856s29.776 27.085 31.122 39.941c1.373 12.855 0 13.533 10.165 25.712 9.178 11.017 16.716 15.991 33.059 35.33h35.461c-3.331-20.059-7.762-41.754-15.047-55.618-14.224-27.085-41.97-70.415-41.97-70.415s-38.589-21.661-48.754-25.042l3.403 1.355s-23.703 2.703-8.131 18.271c15.582 15.568 20.994 37.915 22.336 43.322z"/><path d="M947.92 556.593c-6.784-3.398-10.852-7.457-23.017-21.669-12.173-14.22-12.173-22.347-12.86-29.102-.686-6.779 6.763-8.813 1.348-13.542-5.416-4.737-18.953-21.67-27.08-27.762-8.115-6.085-29.081-22.331-34.509-22.331-16.258 0-21.674 29.78-21.674 29.78s28.437 10.821 27.08 12.864c-1.342 2.025 29.784 6.771 34.534 8.127 4.725 1.339 13.521 26.39 33.161 52.796 19.639 26.399 29.775 14.221 23.017 10.839zm-498.138 34.635c-6.407-5.746-15.135-12.059-16.326-13.661-2.077-2.754 10.157-4.06 10.157-4.06s20.3-6.101 23.682-7.448c3.39-1.348 10.144 5.424 12.178 10.169 2.03 4.737 18.292 8.093 19.64 10.822.225.457-.021 2.008-.538 4.178h48.712c-.967-9.948 7.144-34.601-1.462-54.279-9.479-21.661-55.513-69.711-56.195-73.102 0 0-3.572-3.771-7.072-7.135 4.004-7.915 7.953-18.415 6.309-18.415-2.627 0-21.745-13.899-24.339-13.899-2.605 0-16.508 2.602-16.508 2.602s8.687-13.025 15.64-12.16c6.936.856 17.372 1.729 28.669 3.475 11.292 1.737 38.216 1.737 38.216 1.737s.889-9.551 11.296-15.636c10.411-6.076 23.458-19.983 36.483-21.72 13.034-1.737 46.911-3.483 46.911-3.483s-22.584-11.28-38.224-15.618c-15.636-4.364-39.953-1.755-38.211-15.644 1.733-13.89-13.034-22.576-13.034-22.576s18.229-8.695 18.229-26.068 6.089-31.262 6.089-31.262l-17.36-29.542s-38.22 27.796-52.999 37.347c-14.767 9.559-22.581 19.11-30.402 29.534-7.81 10.432-16.505 19.991-19.975 22.584-3.483 2.602-10.428 8.695-18.25 13.899-7.814 5.228-30.399 4.355-35.614 6.085-5.216 1.745 10.423 13.033-13.89 31.262-24.33 18.245-46.92 72.11-62.55 79.059-15.636 6.948-33.013 13.042-33.013 13.042s-52.119 38.211-65.149 58.186c-13.042 19.991-16.517 40.83-22.593 43.44-3.482 1.492-15.817 10.687-25.715 18.288h287.208zm-9.237-206.337c8.237 0 32.949-18.533 32.949-21.618 0-3.094 13.36-20.601 13.36-20.601l-16.453-1.017s29.86-23.661 26.75-22.653c-3.076 1.026-49.402 10.296-44.254 4.119 5.136-6.169 57.653-32.932 60.737-31.923 3.102 1.042 27.797-12.347 27.797-12.347v11.339l-4.127 18.517-8.234 16.474s-7.198 20.594-14.411 27.797c-7.208 7.203-26.771 46.33-26.771 46.33s-64.25 11.263-64.86 8.237c-1.029-5.146 9.267-22.654 17.517-22.654zM271.707 489.89c18.521-10.28 50.44-27.788 56.623-31.898 6.174-4.11 42.208-21.618 42.208-21.618s22.644-17.509 14.403 13.373c-8.234 30.89-15.441 31.916-19.538 30.89-4.127-1.026-14.415 25.737-13.402 29.856 1.038 4.127-25.725 10.297-25.725 10.297l-5.156 21.618-28.822 1.034s-12.36-13.373-29.855-13.373c-17.492 0-23.683-2.068-23.683-2.068 8.227-10.306 14.422-27.806 32.947-38.111zm2.738 328.473c0 3.187-.458 6.356-1.365 9.534a51.464 51.464 0 01-3.407 8.865c-4.999 9.992-11.919 17.483-20.779 22.483-8.865 4.992-18.742 7.492-29.644 7.492-7.042 0-13.865-1.127-20.449-3.398-6.585-2.271-12.436-5.559-17.542-9.882-5.115-4.314-9.258-9.483-12.436-15.5-3.187-6.026-4.775-12.789-4.775-20.272V693.652c0-8.398 1.305-16.237 3.919-23.517 2.61-7.263 6.42-13.508 11.42-18.729 4.991-5.228 10.953-9.381 17.885-12.441 6.923-3.068 14.707-4.602 23.335-4.602 7.046 0 13.805 1.085 20.275 3.238 6.475 2.161 12.216 5.288 17.207 9.381 5 4.077 8.966 9.085 11.923 14.992 2.95 5.898 4.433 12.593 4.433 20.102v14.305c0 1.365-.793 2.839-2.386 4.424-1.59 1.602-3.06 2.399-4.428 2.399H238.33c-3.406 0-5.334-1.755-5.796-5.28-.458-3.535-.738-7.339-.852-11.416-.119-4.092-.847-7.906-2.216-11.424-1.36-3.525-4.767-5.28-10.216-5.28-4.775 0-8.127 1.814-10.055 5.458-1.928 3.627-2.894 7.492-2.894 11.576V806.77c0 2.509.056 5.178.169 8.009.115 2.847.568 5.449 1.365 7.839.788 2.39 2.042 4.432 3.745 6.135 1.703 1.695 4.258 2.551 7.67 2.551 4.08 0 7.263-1.814 9.542-5.441 2.267-3.635 3.403-7.279 3.403-10.915 0-1.348-.059-3.288-.165-5.779-.123-2.5-.064-5 .165-7.5.225-2.499.801-4.711 1.703-6.644.903-1.94 2.39-2.898 4.432-2.898h29.301c2.267 0 3.92 1.077 4.94 3.238 1.021 2.152 1.703 4.711 2.047 7.677.334 2.941.394 5.898.169 8.848-.228 2.956-.342 5.108-.342 6.473zm127.431 38.839c.22 1.822-.288 3.305-1.533 4.44-1.255 1.127-2.78 1.695-4.602 1.695h-30.665c-3.632 0-5.847-1.873-6.639-5.628-.801-3.745-1.314-7.889-1.539-12.432-.228-4.542-.797-8.694-1.699-12.441-.911-3.737-3.292-5.627-7.161-5.627h-13.623c-4.093 0-6.589 1.89-7.496 5.627-.915 3.746-1.423 7.899-1.533 12.441-.119 4.543-.572 8.687-1.368 12.432-.797 3.755-3.009 5.628-6.64 5.628h-29.309c-2.034 0-3.517-.678-4.428-2.051-.907-1.356-1.245-2.941-1.017-4.763v-1.373a566.658 566.658 0 016.136-55.533 1173.933 1173.933 0 007.495-55.186 1221.622 1221.622 0 015.445-41.923 672.101 672.101 0 017.495-41.559c0-.678.285-2.33.857-4.94.563-2.61 1.305-5.339 2.212-8.178a115.81 115.81 0 012.728-7.67c.907-2.271 1.699-3.407 2.386-3.407h47.699c.686 0 1.474 1.195 2.386 3.576.907 2.399 1.758 5.06 2.559 8.009a165.164 165.164 0 012.043 8.517c.568 2.721.962 4.424 1.195 5.119a715.975 715.975 0 017.661 41.229 1622.169 1622.169 0 015.97 41.898 1476.22 1476.22 0 008.512 55.533c3.187 18.398 5.331 37.034 6.475 55.889v.678zm-51.114-75.983l-8.856-99.491-10.224 100.863v.669c-.225 2.509.86 4.153 3.241 4.95 2.386.797 4.483 1.186 6.301 1.186 2.5 0 4.775-.5 6.813-1.534 2.047-1.017 2.95-3.009 2.725-5.957v-.686zm215.681 79.567c-1.14 1.703-2.843 2.551-5.11 2.551h-27.945c-2.496 0-4.25-.848-5.275-2.551-1.026-1.703-1.534-3.694-1.534-5.974V712.059c-.91 1.135-2.042 4.533-3.41 10.22a558.655 558.655 0 00-4.08 18.568 9279.18 9279.18 0 01-3.92 19.084c-1.254 6.016-1.992 10.042-2.216 12.093-.457 2.95-1.139 7.322-2.051 13.118a135.855 135.855 0 01-3.915 17.365c-1.703 5.805-3.86 10.915-6.47 15.348-2.618 4.423-5.966 6.635-10.051 6.635-4.093 0-7.386-2.262-9.882-6.805-2.504-4.551-4.491-9.822-5.966-15.847a142.755 142.755 0 01-3.233-17.89c-.686-5.906-1.254-10.339-1.699-13.279-.466-1.822-1.258-5.797-2.399-11.941a1123.033 1123.033 0 00-3.737-19.246 979.232 979.232 0 00-3.92-18.389c-1.254-5.576-2.106-8.805-2.563-9.72v143.778c0 1.831-.454 3.644-1.356 5.458-.919 1.831-2.499 2.729-4.775 2.729h-28.618c-2.504 0-4.258-.848-5.28-2.551-1.021-1.703-1.539-3.584-1.539-5.635v-209.55c0-2.491.738-4.585 2.216-6.288 1.479-1.712 3.466-2.56 5.966-2.56h44.296c2.721 0 4.992.797 6.81 2.39 1.364 1.585 2.555 4.204 3.581 7.839 1.021 3.627 1.983 7.552 2.894 11.738.907 4.211 1.593 8.246 2.046 12.119.449 3.847.907 6.804 1.356 8.847.457 2.5.915 5.847 1.368 10.051a259.025 259.025 0 001.703 12.771 845.15 845.15 0 002.051 12.441c.678 3.974 1.36 7.101 2.038 9.364.902-1.577 1.817-4.474 2.724-8.687a308.657 308.657 0 002.559-13.449c.789-4.78 1.475-9.373 2.038-13.796.568-4.433 1.076-7.678 1.539-9.712.224-1.83.678-4.661 1.36-8.534.686-3.856 1.42-7.839 2.216-11.915a146.935 146.935 0 012.724-11.594c1.026-3.61 2.216-6.127 3.581-7.483 1.361-1.593 3.288-2.39 5.793-2.39h43.614c2.262 0 4.199.797 5.788 2.39 1.593 1.585 2.386 3.517 2.386 5.788v210.219c0 2.051-.564 3.933-1.703 5.635zm135.266-152.143c0 4.551-.288 9.492-.843 14.822a92.276 92.276 0 01-3.072 15.678c-1.483 5.102-3.47 9.941-5.966 14.491-2.5 4.533-5.572 8.39-9.203 11.576-4.539 3.864-9.538 6.813-14.988 8.856a103.925 103.925 0 01-17.038 4.762c-1.817.466-3.745.686-5.787.686-2.047 0-3.983.229-5.797.678-2.496.686-4.148 1.712-4.937 3.068-.8 1.365-1.198 3.305-1.198 5.797v65.754c0 2.508-.742 4.559-2.212 6.135-1.483 1.593-3.462 2.39-5.958 2.39h-25.215c-5.911 0-8.864-2.95-8.864-8.856V645.6c0-2.491.856-4.585 2.563-6.288 1.703-1.712 3.797-2.56 6.301-2.56h43.614c10.898 0 20.042 1.933 27.427 5.797 7.373 3.864 13.399 9.085 18.06 15.67 4.652 6.593 8.004 14.253 10.055 23 2.032 8.747 3.058 17.891 3.058 27.424zm-41.567-5.788c0-2.949-.288-6.186-.848-9.711-.568-3.517-1.593-6.814-3.072-9.882-1.479-3.068-3.466-5.669-5.962-7.847-2.504-2.152-5.572-3.229-9.199-3.229-2.504 0-4.373.975-5.622 2.898-1.25 1.933-1.873 3.907-1.873 5.958v55.541c0 2.509.741 4.602 2.215 6.305 1.479 1.695 3.463 2.55 5.962 2.55 3.403 0 6.246-1.008 8.517-3.059 2.267-2.051 4.139-4.602 5.618-7.67a40.654 40.654 0 003.242-9.542c.678-3.288 1.021-6.297 1.021-9.025v-13.287zm99.83 157.931c-1.145 1.703-2.844 2.551-5.115 2.551h-29.305c-2.043 0-3.695-.797-4.932-2.39-1.258-1.576-1.881-3.279-1.881-5.102V645.957c0-2.509.623-4.653 1.881-6.483 1.237-1.805 3.115-2.721 5.619-2.721h27.254c2.5 0 4.487.848 5.966 2.56 1.474 1.703 2.212 3.797 2.212 6.288V855.15c0 2.052-.564 3.934-1.699 5.636zm142.587.162c-1.026 1.593-2.784 2.39-5.275 2.39h-27.263c-2.505 0-5.055-2.95-7.67-8.856-2.61-5.916-5.106-12.619-7.496-20.102-2.381-7.509-4.483-14.72-6.3-21.644-1.822-6.923-3.068-11.525-3.746-13.805a4970.37 4970.37 0 00-9.538-34.237 4227 4227 0 01-9.542-34.246v126.754c0 1.822-.572 3.305-1.708 4.44-1.135 1.127-2.606 1.695-4.427 1.695h-28.623c-2.042 0-3.572-.678-4.598-2.051-1.021-1.356-1.533-2.941-1.533-4.763v-212.27c0-2.051.737-3.805 2.216-5.288 1.474-1.474 3.233-2.212 5.28-2.212h25.211c1.589 0 3.292 1.195 5.119 3.576 1.809 2.399 3.631 5.509 5.445 9.382 1.822 3.856 3.521 8.051 5.11 12.585a647.315 647.315 0 014.427 13.118 442.621 442.621 0 013.585 11.585c1.017 3.525 1.75 5.975 2.216 7.348a1299.817 1299.817 0 009.707 29.966c3.285 9.771 6.645 19.762 10.051 29.991V644.932c0-5.458 2.5-8.178 7.496-8.178h26.238c2.267 0 4.025.848 5.279 2.56 1.242 1.703 1.878 3.576 1.878 5.618v210.219c0 2.279-.513 4.221-1.539 5.797zm130.5.339c-1.936 1.373-3.924 2.051-5.966 2.051h-22.491c-1.136 0-2.156-1.364-3.063-4.093-.911-2.721-1.474-4.542-1.699-5.44-4.551 3.864-9.258 6.982-14.148 9.364-4.886 2.381-10.386 3.568-16.517 3.568-7.496 0-14.034-1.585-19.597-4.762-5.568-3.179-10.111-7.314-13.627-12.441-3.526-5.11-6.132-10.899-7.835-17.382-1.703-6.457-2.559-13.118-2.559-19.924v-115.16a67.253 67.253 0 014.093-23.178c2.721-7.491 6.589-14.186 11.581-20.093 4.996-5.915 10.953-10.627 17.89-14.153 6.928-3.508 14.593-5.28 22.996-5.28 7.038 0 13.852 1.026 20.453 3.076 6.58 2.034 12.314 5.11 17.195 9.186 4.886 4.102 8.805 9.094 11.762 15 2.945 5.916 4.424 12.721 4.424 20.45v14.305c0 1.822-.568 3.407-1.703 4.771-1.135 1.356-2.61 2.051-4.427 2.051h-29.979c-3.182 0-5-1.755-5.458-5.28a155.602 155.602 0 01-1.017-11.416c-.233-4.092-1.03-7.906-2.39-11.424-1.364-3.525-4.771-5.28-10.22-5.28-4.552 0-7.84 1.881-9.882 5.61-2.047 3.754-3.063 7.559-3.063 11.424v119.254c0 2.5.046 5.178.169 8.009.102 2.839.619 5.458 1.533 7.839.903 2.381 2.268 4.313 4.089 5.788 1.809 1.483 4.433 2.229 7.835 2.229 2.953 0 5.847-1.136 8.682-3.415 2.843-2.272 4.263-4.992 4.263-8.178v-30.669c0-2.483-.738-4.195-2.216-5.102-1.474-.923-3.123-1.652-4.933-2.229a28.225 28.225 0 01-4.945-2.025c-1.483-.814-2.216-2.458-2.216-4.958v-22.483c0-1.814.683-3.407 2.043-4.771 1.368-1.365 2.953-2.051 4.775-2.051h42.245c1.822 0 3.411.686 4.772 2.051 1.364 1.364 2.042 2.957 2.042 4.771v104.948c-.001 2.263-.963 4.085-2.891 5.442zM337.19 960.066c-.254.406-.695.593-1.31.593h-6.737c-.619 0-1.25-.729-1.899-2.177-.644-1.458-1.258-3.119-1.855-4.984a111.567 111.567 0 01-1.555-5.347c-.45-1.711-.758-2.839-.924-3.415a2025.31 2025.31 0 00-2.356-8.458 733.972 733.972 0 01-2.36-8.466v31.33c0 .466-.148.814-.424 1.093-.284.288-.644.423-1.101.423h-7.073c-.504 0-.885-.169-1.139-.509-.25-.33-.378-.72-.378-1.178V906.48c0-.492.178-.924.547-1.305.369-.356.801-.551 1.305-.551h6.233c.394 0 .817.305 1.267.907.449.585.898 1.348 1.351 2.314.445.949.869 1.992 1.263 3.11.391 1.119.754 2.203 1.093 3.237.335 1.051.636 2 .877 2.873.263.864.441 1.466.559 1.814a311.1 311.1 0 002.394 7.407c.814 2.415 1.644 4.89 2.487 7.415v-27.042c0-1.348.614-2.034 1.852-2.034h6.488c.559 0 1 .229 1.31.644.305.432.462.882.462 1.39v51.982c0 .568-.123 1.043-.377 1.425zm33.148-.924c.051.466-.068.814-.372 1.093-.314.288-.695.423-1.145.423h-7.58c-.898 0-1.445-.457-1.644-1.389a19.44 19.44 0 01-.378-3.068 17.11 17.11 0 00-.423-3.085c-.22-.916-.814-1.382-1.767-1.382h-3.373c-1.008 0-1.627.466-1.852 1.382-.22.932-.356 1.958-.377 3.085a17.536 17.536 0 01-.334 3.068c-.2.932-.746 1.389-1.644 1.389h-7.254c-.5 0-.864-.169-1.085-.509-.229-.33-.314-.72-.259-1.178v-.331c.279-4.61.784-9.186 1.517-13.729a285.227 285.227 0 001.852-13.653c.39-3.482.843-6.932 1.351-10.355a168.434 168.434 0 011.852-10.289c0-.169.068-.568.212-1.211.14-.661.318-1.33.547-2.034.229-.695.45-1.339.67-1.898.225-.551.423-.848.597-.848h11.792c.169 0 .364.305.589.907.225.585.436 1.237.631 1.966.2.728.369 1.432.509 2.101.14.686.242 1.102.288 1.263a177.076 177.076 0 011.899 10.212 381.58 381.58 0 011.474 10.348 349.002 349.002 0 002.11 13.746 125.259 125.259 0 011.597 13.805v.171zm-12.635-18.788l-2.187-24.602-2.53 24.949v.161c-.059.619.208 1.034.797 1.229.598.194 1.111.288 1.564.288.614 0 1.178-.128 1.683-.382.508-.246.728-.745.673-1.466v-.177zm35.596-26.873a2.166 2.166 0 01-1.097.542 5.01 5.01 0 01-1.348.093 18.183 18.183 0 00-1.309-.042 6.46 6.46 0 00-1.809.254c-.593.161-.881.644-.881 1.423v43.22c0 .635-.242 1.067-.72 1.314a3.08 3.08 0 01-1.475.372h-6.232a2.304 2.304 0 01-1.517-.55c-.454-.348-.679-.857-.679-1.467v-42.89c0-.779-.36-1.263-1.093-1.423-.725-.17-1.513-.28-2.356-.339a11.253 11.253 0 01-2.356-.381c-.729-.204-1.102-.721-1.102-1.559v-5.39c0-.67.213-1.186.64-1.509.415-.347.932-.525 1.551-.525h20.225c.61 0 1.101.161 1.474.475.364.313.542.771.542 1.382v5.737c.001.56-.152.984-.458 1.263zm30.962 40.398c-.729 1.61-1.712 2.966-2.953 4.093-1.237 1.119-2.678 1.983-4.335 2.609-1.653.619-3.441.916-5.347.916-1.915 0-3.699-.313-5.352-.957a13.421 13.421 0 01-4.339-2.704 12.34 12.34 0 01-2.911-4.127c-.703-1.61-1.051-3.381-1.051-5.339v-41.55c0-1.457.733-2.195 2.195-2.195h6.229c.564 0 1.042.127 1.436.39.391.254.585.695.585 1.305v40.016c0 .619.013 1.305.047 2.034.025.72.14 1.39.335 1.975a3.225 3.225 0 001.008 1.474c.479.398 1.135.585 1.979.585.788 0 1.398-.187 1.822-.585.419-.398.707-.89.881-1.474a8.406 8.406 0 00.292-1.95c.03-.694.043-1.322.043-1.889V906.32c0-.61.212-1.051.632-1.305.423-.263.885-.39 1.389-.39h6.488c1.351 0 2.017.635 2.017 1.856v42.051c-.001 1.974-.356 3.745-1.09 5.347zm34.288 5.433c0 .457-.153.788-.466 1.016-.31.22-.661.331-1.051.331h-8.428c-.22-.331-.403-.838-.538-1.517a20.866 20.866 0 01-.344-2.093 59.005 59.005 0 01-.207-2.161 18.503 18.503 0 01-.081-1.644v-11.449c0-1.008-.343-2.025-1.013-3.034-.686-1.017-1.585-1.517-2.699-1.517-.619 0-1.199.178-1.724.551-.542.356-.805.856-.805 1.466v19.712c0 .635-.195 1.067-.594 1.314-.39.254-.864.372-1.432.372h-6.403c-1.343 0-2.017-.669-2.017-2.017V906.66c0-.627.212-1.102.631-1.483a2.35 2.35 0 011.559-.551h10.114c5.28 0 9.064 1.39 11.373 4.136 2.292 2.753 3.449 6.686 3.449 11.805 0 2.415-.453 4.652-1.347 6.729-.898 2.084-2.36 3.814-4.381 5.228 2.19 1.458 3.691 3.161 4.5 5.102.823 1.933 1.229 4.17 1.229 6.695v8.602c0 .72.03 1.424.085 2.102.051.67.135 1.339.25 2.025.06.39.135.763.216 1.127.082.372.124.744.124 1.135zM447.77 920.6c0-.729-.059-1.517-.174-2.39a7.614 7.614 0 00-.67-2.339 5.161 5.161 0 00-1.394-1.763c-.589-.466-1.361-.704-2.314-.704-.449 0-.873.22-1.267.67-.394.432-.589.881-.589 1.339v11.059c0 .61.22 1.101.674 1.466.449.365.953.542 1.517.542.894 0 1.627-.288 2.182-.881a5.907 5.907 0 001.276-2.085c.275-.822.475-1.677.585-2.559.115-.898.174-1.678.174-2.355zm38.499 39.55a1.362 1.362 0 01-1.093.509h-19.885c-.509 0-.915-.246-1.229-.745-.3-.517-.457-.992-.457-1.432V906.82c0-.61.178-1.119.547-1.551.369-.415.856-.644 1.474-.644h18.704c.509 0 .936.161 1.309.475.364.313.542.712.542 1.22v5.983c0 .449-.14.838-.42 1.178a1.357 1.357 0 01-1.097.509h-8.259c-.614 0-1.161.237-1.636.72-.482.466-.72 1.017-.72 1.644v8.254c0 1.559.788 2.365 2.356 2.365h7.076c1.132 0 1.695.61 1.695 1.847v5.39c0 .61-.161 1.11-.466 1.474-.309.365-.766.551-1.394.551h-7.577c-.563 0-.987.279-1.27.839-.28.559-.42 1.067-.42 1.517v10.618c0 1.568.729 2.347 2.191 2.347h8.766c.509 0 .907.212 1.22.594.31.39.463.813.463 1.27v5.551c0 .459-.14.849-.42 1.179zm47.594-1.008c.055.466-.072.814-.373 1.093-.313.288-.695.423-1.139.423h-7.584c-.899 0-1.445-.457-1.64-1.389a19.882 19.882 0 01-.385-3.068 15.943 15.943 0 00-.424-3.085c-.216-.916-.809-1.382-1.763-1.382h-3.373c-1.004 0-1.627.466-1.855 1.382a14.594 14.594 0 00-.369 3.085c-.034 1.119-.144 2.152-.344 3.068-.194.932-.741 1.389-1.644 1.389h-7.246c-.504 0-.869-.169-1.093-.509-.224-.33-.309-.72-.25-1.178v-.331c.276-4.61.78-9.186 1.513-13.729a286.534 286.534 0 001.855-13.653 298.8 298.8 0 011.348-10.355 171.555 171.555 0 011.852-10.289c0-.169.068-.568.212-1.211.144-.661.318-1.33.551-2.034a32.51 32.51 0 01.669-1.898c.225-.551.419-.848.589-.848h11.797c.169 0 .368.305.588.907.225.585.436 1.237.636 1.966.194.728.365 1.432.509 2.101.135.686.233 1.102.288 1.263a177.93 177.93 0 011.898 10.212 377.68 377.68 0 011.47 10.348 377.256 377.256 0 002.11 13.746 125.26 125.26 0 011.598 13.805v.171zm-12.636-18.788l-2.19-24.602-2.525 24.949v.161c-.06.619.207 1.034.797 1.229.593.194 1.11.288 1.564.288.614 0 1.178-.128 1.682-.382.509-.246.733-.745.673-1.466v-.177zm45.119 19.712c-.254.406-.695.593-1.309.593h-6.738c-.619 0-1.254-.729-1.898-2.177-.645-1.458-1.263-3.119-1.856-4.984a121.87 121.87 0 01-1.559-5.347 116.694 116.694 0 00-.923-3.415c-.789-2.856-1.572-5.678-2.36-8.458a975.966 975.966 0 01-2.356-8.466v31.33c0 .466-.144.814-.419 1.093-.284.288-.653.423-1.098.423h-7.08c-.508 0-.882-.169-1.136-.509-.254-.33-.377-.72-.377-1.178V906.48c0-.492.178-.924.547-1.305.368-.356.797-.551 1.304-.551h6.233c.394 0 .814.305 1.267.907.45.585.898 1.348 1.348 2.314.453.949.869 1.992 1.263 3.11s.758 2.203 1.093 3.237c.338 1.051.64 2 .885 2.873.254.864.441 1.466.551 1.814a325.232 325.232 0 002.399 7.407c.813 2.415 1.644 4.89 2.487 7.415v-27.042c0-1.348.619-2.034 1.852-2.034h6.487c.564 0 1 .229 1.305.644.313.432.462.882.462 1.39v51.982c-.002.568-.124 1.043-.374 1.425zm33.232-11.365c0 3.483-.818 6.347-2.445 8.593-1.627 2.237-4.296 3.364-8 3.364h-15.169c-.335 0-.699-.187-1.093-.593-.394-.382-.589-.754-.589-1.093v-52.491c0-.45.225-.864.674-1.255.449-.39.894-.601 1.348-.601h11.462c4.152 0 7.499 1.008 10.02 3.009 2.53 1.983 3.792 5.212 3.792 9.644v31.423zm-10.779-32.11c0-.882-.352-1.652-1.055-2.262-.708-.619-1.471-.924-2.322-.924-.666 0-1.258.195-1.762.585-.513.398-.763.949-.763 1.686v33.195c0 .67.14 1.373.423 2.11.279.712.844 1.093 1.678 1.093 1.526 0 2.53-.526 3.038-1.559.504-1.042.763-2.212.763-3.492v-30.432zm59.224 42.551c.05.466-.072.814-.382 1.093-.309.288-.691.423-1.139.423h-7.581c-.898 0-1.445-.457-1.648-1.389a19.49 19.49 0 01-.369-3.068c-.063-1.127-.203-2.153-.428-3.085-.225-.916-.81-1.382-1.767-1.382h-3.369c-1.013 0-1.636.466-1.852 1.382-.228.932-.356 1.958-.385 3.085a16.623 16.623 0 01-.335 3.068c-.199.932-.745 1.389-1.644 1.389h-7.246c-.509 0-.873-.169-1.089-.509-.229-.33-.318-.72-.259-1.178v-.331c.28-4.61.789-9.186 1.517-13.729a275.391 275.391 0 001.852-13.653c.394-3.482.843-6.932 1.352-10.355a159.744 159.744 0 011.855-10.289c0-.169.069-.568.208-1.211.14-.661.322-1.33.55-2.034.22-.695.445-1.339.67-1.898.22-.551.423-.848.589-.848h11.796c.17 0 .364.305.594.907.22.585.428 1.237.623 1.966.203.728.372 1.432.509 2.101.144.686.246 1.102.3 1.263a179.63 179.63 0 011.89 10.212 435.749 435.749 0 011.483 10.348c.61 4.618 1.31 9.186 2.102 13.746a125.264 125.264 0 011.602 13.805v.171zm-12.636-18.788l-2.19-24.602-2.53 24.949v.161c-.06.619.207 1.034.801 1.229.588.194 1.106.288 1.559.288.614 0 1.174-.128 1.683-.382.504-.246.729-.745.678-1.466v-.177zm43.301 8.347c0 3.483-.814 6.347-2.445 8.593-1.627 2.237-4.296 3.364-8 3.364h-15.169c-.339 0-.699-.187-1.093-.593-.39-.382-.588-.754-.588-1.093v-52.491c0-.45.22-.864.678-1.255.444-.39.889-.601 1.343-.601h11.457c4.157 0 7.495 1.008 10.025 3.009 2.526 1.983 3.793 5.212 3.793 9.644v31.423zm-10.784-32.11c0-.882-.352-1.652-1.051-2.262-.712-.619-1.479-.924-2.322-.924-.669 0-1.263.195-1.767.585-.509.398-.758.949-.758 1.686v33.195c0 .67.14 1.373.423 2.11.284.712.839 1.093 1.678 1.093 1.521 0 2.53-.526 3.034-1.559.508-1.042.763-2.212.763-3.492v-30.432zm40.356 3.932c-.674 4.577-1.322 9.17-1.945 13.763-.501 3.5-.979 6.957-1.428 10.407a139.443 139.443 0 01-1.762 10.415c-.063.161-.148.542-.259 1.127a24.078 24.078 0 01-.462 1.898c-.2.686-.411 1.263-.636 1.78-.22.5-.444.745-.669.745h-10.953c-.229 0-.454-.262-.674-.797a12.583 12.583 0 01-.588-1.771 28.859 28.859 0 01-.424-1.889 14.174 14.174 0 00-.25-1.178 221.678 221.678 0 01-1.601-10.407c-.454-3.457-.903-6.949-1.352-10.5a290.596 290.596 0 01-1.178-9.338 511.192 511.192 0 01-.924-9.272 64.432 64.432 0 01-.259-3.119 57.138 57.138 0 00-.25-3.034c-.055-.457-.106-.898-.169-1.348-.056-.44-.076-.898-.076-1.347 0-.509.161-.958.495-1.39a1.683 1.683 0 011.356-.644h6.737c.395 0 .746.416 1.051 1.237.31.813.576 1.864.797 3.153.229 1.296.42 2.712.598 4.254.161 1.551.297 3.016.372 4.424.085 1.414.153 2.678.217 3.797.055 1.119.109 1.915.169 2.347.165 2.262.331 4.491.5 6.712.169 2.203.364 4.44.589 6.695.115 1.127.216 2.288.296 3.491.085 1.212.238 2.373.467 3.501.279-1.06.444-2.221.504-3.449.055-1.246.135-2.415.25-3.542.228-2.255.424-4.492.588-6.695.174-2.221.339-4.449.509-6.712.056-1.229.141-2.628.254-4.204.11-1.576.25-3.161.424-4.762.165-1.602.39-3.153.665-4.67.284-1.517.627-2.847 1.013-3.958.119-.228.259-.542.42-.975.174-.415.398-.644.678-.644h6.491c.564 0 1.021.127 1.386.39.364.254.517.695.462 1.305v.339c-.281 4.662-.76 9.289-1.429 13.865zm27.886 39.627c-.28.339-.645.509-1.098.509h-19.881c-.509 0-.911-.246-1.221-.745-.309-.517-.457-.992-.457-1.432V906.82c0-.61.174-1.119.547-1.551.365-.415.851-.644 1.47-.644h18.703c.504 0 .941.161 1.31.475.36.313.542.712.542 1.22v5.983c0 .449-.135.838-.42 1.178a1.355 1.355 0 01-1.093.509h-8.259c-.614 0-1.165.237-1.64.72-.478.466-.72 1.017-.72 1.644v8.254c0 1.559.789 2.365 2.36 2.365h7.076c1.132 0 1.683.61 1.683 1.847v5.39c0 .61-.157 1.11-.462 1.474-.305.365-.771.551-1.395.551h-7.576c-.56 0-.983.279-1.267.839-.284.559-.42 1.067-.42 1.517v10.618c0 1.568.729 2.347 2.187 2.347h8.771c.501 0 .907.212 1.217.594.313.39.462.813.462 1.27v5.551c0 .459-.136.849-.419 1.179zm33.74-.084c-.254.406-.691.593-1.305.593h-6.741c-.623 0-1.25-.729-1.894-2.177-.648-1.458-1.263-3.119-1.851-4.984a107.515 107.515 0 01-1.564-5.347 177.994 177.994 0 00-.92-3.415c-.792-2.856-1.572-5.678-2.36-8.458a940.845 940.845 0 01-2.359-8.466v31.33c0 .466-.144.814-.424 1.093-.279.288-.644.423-1.093.423h-7.077c-.509 0-.885-.169-1.139-.509-.254-.33-.378-.72-.378-1.178V906.48c0-.492.174-.924.547-1.305.365-.356.797-.551 1.305-.551h6.233c.39 0 .813.305 1.267.907.441.585.898 1.348 1.343 2.314.449.949.876 1.992 1.267 3.11.394 1.119.754 2.203 1.097 3.237.335 1.051.632 2 .882 2.873.25.864.436 1.466.555 1.814a311.1 311.1 0 002.394 7.407c.814 2.415 1.644 4.89 2.487 7.415v-27.042c0-1.348.614-2.034 1.856-2.034h6.483c.563 0 .995.229 1.309.644.305.432.457.882.457 1.39v51.982c.001.568-.122 1.043-.377 1.425zm28.649-46.585a2.147 2.147 0 01-1.101.542c-.424.093-.869.119-1.343.093a18.192 18.192 0 00-1.31-.042 6.5 6.5 0 00-1.809.254c-.594.161-.886.644-.886 1.423v43.22c0 .635-.233 1.067-.716 1.314a3.076 3.076 0 01-1.474.372h-6.233a2.299 2.299 0 01-1.517-.55c-.453-.348-.678-.857-.678-1.467v-42.89c0-.779-.364-1.263-1.089-1.423-.733-.17-1.517-.28-2.36-.339a11.2 11.2 0 01-2.355-.381c-.733-.204-1.102-.721-1.102-1.559v-5.39c0-.67.212-1.186.636-1.509.415-.347.936-.525 1.555-.525h20.224c.614 0 1.102.161 1.474.475.357.313.542.771.542 1.382v5.737c-.001.56-.149.984-.458 1.263zm30.957 40.398c-.729 1.61-1.712 2.966-2.953 4.093-1.237 1.119-2.678 1.983-4.339 2.609-1.653.619-3.441.916-5.348.916-1.911 0-3.694-.313-5.347-.957a13.45 13.45 0 01-4.343-2.704 12.317 12.317 0 01-2.902-4.127c-.708-1.61-1.06-3.381-1.06-5.339v-41.55c0-1.457.738-2.195 2.195-2.195h6.229c.563 0 1.042.127 1.44.39.394.254.585.695.585 1.305v40.016c0 .619.017 1.305.043 2.034.029.72.14 1.39.339 1.975a3.235 3.235 0 001.013 1.474c.474.398 1.131.585 1.983.585.779 0 1.389-.187 1.805-.585.423-.398.716-.89.889-1.474a8.625 8.625 0 00.292-1.95c.03-.694.043-1.322.043-1.889V906.32c0-.61.212-1.051.627-1.305.423-.263.889-.39 1.394-.39h6.488c1.351 0 2.017.635 2.017 1.856v42.051c-.001 1.974-.361 3.745-1.09 5.347zm34.288 5.433c0 .457-.157.788-.466 1.016-.31.22-.657.331-1.051.331h-8.432c-.22-.331-.403-.838-.542-1.517-.14-.66-.25-1.373-.335-2.093a49.713 49.713 0 01-.207-2.161 20.078 20.078 0 01-.085-1.644v-11.449c0-1.008-.339-2.025-1.017-3.034-.673-1.017-1.576-1.517-2.695-1.517-.614 0-1.191.178-1.721.551-.534.356-.813.856-.813 1.466v19.712c0 .635-.187 1.067-.576 1.314-.398.254-.877.372-1.436.372h-6.407c-1.343 0-2.018-.669-2.018-2.017V906.66c0-.627.208-1.102.627-1.483.423-.356.945-.551 1.564-.551h10.11c5.275 0 9.068 1.39 11.378 4.136 2.296 2.753 3.444 6.686 3.444 11.805 0 2.415-.444 4.652-1.347 6.729-.895 2.084-2.36 3.814-4.377 5.228 2.19 1.458 3.691 3.161 4.504 5.102.814 1.933 1.22 4.17 1.22 6.695v8.602c0 .72.034 1.424.085 2.102.051.67.14 1.339.254 2.025.059.39.131.763.216 1.127.081.372.123.744.123 1.135zM853.001 920.6c0-.729-.063-1.517-.17-2.39a7.731 7.731 0 00-.678-2.339 5.03 5.03 0 00-1.389-1.763c-.589-.466-1.356-.704-2.314-.704-.454 0-.873.22-1.267.67-.394.432-.594.881-.594 1.339v11.059c0 .61.225 1.101.678 1.466.445.365.949.542 1.513.542.903 0 1.627-.288 2.191-.881a5.838 5.838 0 001.271-2.085c.279-.822.475-1.677.588-2.559.107-.898.171-1.678.171-2.355zm38.495 39.55a1.35 1.35 0 01-1.093.509h-19.885c-.5 0-.915-.246-1.22-.745-.305-.517-.462-.992-.462-1.432V906.82c0-.61.182-1.119.547-1.551.364-.415.851-.644 1.474-.644h18.703c.504 0 .941.161 1.305.475.364.313.546.712.546 1.22v5.983c0 .449-.14.838-.423 1.178a1.347 1.347 0 01-1.089.509h-8.262c-.614 0-1.157.237-1.636.72-.483.466-.72 1.017-.72 1.644v8.254c0 1.559.788 2.365 2.356 2.365h7.076c1.127 0 1.69.61 1.69 1.847v5.39c0 .61-.156 1.11-.466 1.474-.309.365-.767.551-1.389.551h-7.577c-.563 0-.988.279-1.271.839-.275.559-.419 1.067-.419 1.517v10.618c0 1.568.729 2.347 2.19 2.347h8.763c.509 0 .911.212 1.224.594.31.39.457.813.457 1.27v5.551c0 .459-.14.849-.419 1.179z"/></svg>