<svg xmlns="http://www.w3.org/2000/svg" viewBox="0 0 1200 1200"><path d="M933.651 572.168c-.581-63.767-1.761-127.55-4.259-191.273-2.196-56.023-11.925-106.995-37.396-157.323-29.97-59.219-67.609-116.522-104.676-171.513-2.112-3.133-6.072-2.334-7.665.024-.059-.008-.106-.037-.167-.041-37.79-2.103-77.419 4.732-115.209 7.063-39.671 2.447-79.38 4.271-119.112 5.368-78.285 2.16-156.406.901-234.623-2.717-3.976-.184-5.042 4.151-3.292 6.72-4.243 111.884-1.401 224.325-1.888 336.283a77734.079 77734.079 0 01-2.212 338.722c-.562 64.517-1.56 129.033-1.983 193.55-.002.23.035.435.06.648-.113 2.313 1.327 4.792 4.318 4.972 78.969 4.755 158.131 7.472 237.258 9.52-6.252 13.835-24.744 42.866-71.432 49.096-1.378-8.386-5.864-16.455-12.466-21.904-5.974-4.929-12.695-6.98-18.909-5.773-1.444.279-2.749.833-3.994 1.503-7.404-9.574-21.864-13.221-34.179-13.292-8.318-.077-18.118 1.536-25.016 5.703-4.954-1.919-12.824-3.507-18.198-1.549-3.518 1.283-5.002 3.635-5.626 5.383-1.245 3.489-5.464 32.943-14.559 101.667-.772 5.833-1.289 9.747-1.425 10.693-.947 6.63 11.928 21.809 13.401 23.518 10.18 11.824 38.253 39.354 78.955 39.641 1.1.008 2.185.011 3.265.011 42.654 0 70.545-6.044 85.193-18.448 5.294-4.482 4.696-13.305 1.108-18.91-.992-1.549-2.099-2.611-3.236-3.364 1.142-13.433-4.12-31.015-14.132-46.349-6.797-10.411-14.749-18.118-23.074-22.666 38.37-6.061 63.91-24.95 79.344-41.285 17.077-18.076 25.274-36.525 27.688-42.626 9.948.233 19.896.464 29.841.686 10.673.238 21.349.401 32.023.61.286 1.206.974 2.302 2.074 2.996 19.496 12.282 43.725 33.535 57.55 67.772-6.046 2.941-12.584 7.056-16.815 13.423-6.78 10.198-5.139 24.453 3.659 31.777.556.463 1.192.814 1.79 1.219-2.301 7.906-1.226 20.563-1.06 22.318.744 7.874 2.93 20.782 9.337 29.169-.878 9.44 6.589 20.224 16.853 23.796 4.765 1.657 19.913 3.014 37.734 3.014 22.341 0 48.88-2.134 64.428-8.484 27.355-11.173 67.584-70.636 71.953-82.908.512-1.441.985-3.25.451-5.048-1.196-6.088-6.947-14.584-13.55-17.065-.677-1.522-1.62-2.943-2.885-4.141-9.417-8.918-28.003-23.877-46.658-23.877-.125 0-.247.005-.372.014-24.106 1.854-36.772 13.346-43.447 27.02-3.25-2.427-7.191-4.055-11.202-4.564.301-1.599.484-3.3.435-5.197-.188-7.324-3.57-14.225-9.279-18.934-8.369-6.903-19.698-7.956-29.56-2.754-.024.013-.048.03-.072.042-9.736-24.964-19.908-36.957-35.083-48.592 21.612.32 43.224.613 64.838.816 51.766.485 104.698 3.551 156.353.04.032-.002.052-.018.083-.021 2.492.596 5.538-.772 5.641-4.124 3.891-126.56 4.232-253.446 3.078-380.055zM869.492 203.93c7.27 12.808 14.162 25.869 20.315 39.257-9.791-13.854-20.946-26.702-31.954-38.234-16.281-17.058-33.952-32.721-51.628-48.303-17.397-15.336-34.58-31.989-53.554-45.436 8.125-4.731 14.434-14.359 19.202-21.768 4.701-7.306 9.815-16.766 11.74-26.051 27.645 47.43 58.775 92.787 85.879 140.535zM441.839 983.1c3.292-.634 7.256.728 10.902 3.736 4.659 3.843 7.868 9.461 8.979 15.33-2.912.176-5.885.298-8.995.298l-1.116-.003h-.021c-.902 0-1.784.252-2.551.727-3.383 2.097-5.282 7.122-5.643 14.938-.079 1.723-.235 8.055 1.234 13.371-3.66.288-7.271.824-10.856 1.688-4.235-30.47 1.815-48.875 8.067-50.085zm69.717 137.931c-12.994 11.003-40.707 16.435-82.13 16.142-49.139-.347-80.624-45.351-82.757-52.683.208-1.528.689-5.156 1.359-10.213 3.027-22.869 12.108-91.489 13.97-99.267 1.259-.492 4.361-.317 7.396.321-.023.051-.056.097-.079.149-11.829 22.5-15.863 104.975-16.03 108.485a4.86 4.86 0 001.209 3.437c28.93 32.726 64.223 42.766 94.646 42.764 27.183 0 50.471-8.015 61.853-15.023.489.922.98 2.329 1.01 3.864.024 1.187-.255 1.86-.447 2.024zm-18.113-55.938c9.198 14.087 14.046 30.549 12.439 41.795-15.953 9.361-88.678 35.086-142.824-24.443 1.275-24.827 6.108-86.181 14.894-102.579.071-.134.136-.27.194-.408 1.673-3.976 11.068-8.079 23.622-7.97 9.924.058 22.498 2.92 27.331 10.601-6.939 11.722-7.697 33.412-4.681 54.034-10.753 4.156-21.633 11.048-33.653 21a4.843 4.843 0 006.176 7.46c25.342-20.977 44.009-26.945 68.874-22.03 9.421 1.862 19.493 10.078 27.628 22.54zm325.82 67.456c-26.097 10.664-87.365 8.052-95.318 5.289-3.421-1.19-6.22-3.631-8.055-6.344 9.298 3.416 22.272 4.604 35.628 4.604 25.178 0 51.507-4.097 56.14-4.852.304-.049.602-.128.891-.233 24.447-8.981 58.79-60.568 72.421-82.33.181-.288.301-.597.457-.895 1.9 2.022 3.868 4.995 4.375 7.495-2.763 9.193-42.385 67.401-66.539 77.266zm-44.656-92.103c3.706 0 7.735 1.97 10.087 4.762-3.664 12.465-3.721 25.288-3.75 33.526-.005 1.611-.011 3.09-.038 4.406a4.841 4.841 0 004.739 4.944c2.626.052 4.887-2.065 4.944-4.739.03-1.367.035-2.904.041-4.578.069-20.031.2-57.292 41.788-60.606 15.821.112 33.103 14.868 39.818 21.226a3.31 3.31 0 01.526 4.152c-20.904 33.374-49.431 71.294-67.14 78.223-20.439 3.284-75.227 9.19-91.11-1.606-10.494-7.136-11.98-35.922-9.925-44.791 1.806.347 3.667.581 5.631.581 2.755 0 5.651-.344 8.639-1.04 4.822-1.124 16.99-4.428 25.84-10.819l.385-.277c8.107-5.855 16.492-11.91 23.904-19.046a46.705 46.705 0 002.475-2.585c1.564-1.705 1.624-1.733 3.146-1.733zm-31.278-27.815c6.449-3.394 13.503-2.776 18.882 1.658 3.544 2.923 5.643 7.191 5.758 11.711.103 4.01-1.113 6.694-3.434 9.404l-.317.341c-.407.445-.847.927-1.36 1.441-.008.008-.011.02-.019.029-.193.192-.37.379-.572.574-6.919 6.662-15.021 12.513-22.856 18.171l-.386.279c-5.152 3.72-13.513 7.172-22.367 9.236-3.996.928-11.465 1.854-16.617-2.434-5.546-4.617-5.404-13.536-1.789-18.972 2.826-4.254 7.5-7.325 12.076-9.639 1.252 3.838 2.422 7.77 3.396 11.909a4.842 4.842 0 005.373 3.687c9.386-1.288 17.274-5.328 23.45-12.012 3.049-3.304 3.944-7.953 4.092-8.851a4.839 4.839 0 00-.14-2.182 355.901 355.901 0 00-4.377-13.635c.403-.242.808-.505 1.207-.715zm28.358-65.679a12179 12179 0 01-156.333-2.629c-101.614-2.358-203.108-7.229-304.683-10.503 3.397-224.701 3.743-449.507 4.183-674.229.123-62.986 1.355-126.144-.949-189.1 77.966 4.727 156.357 4.732 234.402 2.346 38.685-1.183 77.348-3.055 115.973-5.515 37.253-2.373 77.681-1.969 114.175-10.453-4.586 8.698-7.419 18.442-12.627 26.953-5.77 9.429-15.924 17.131-20.297 27.071-.463 1.053.06 2.305 1.086 2.563.061.087.086.186.159.269 28.97 32.661 66.339 58.142 97.252 89.075 31.705 31.726 52.31 65.15 67.698 106.676 4.012 20.509 5.891 41.385 6.954 62.342 6.234 122.94 5.92 246.359 5.046 369.417-.489 68.86-2.036 137.723-1.989 206.584-49.705-2.874-100.265-.351-150.05-.867zm-7.219-585.132c-12.857-4.159-26.157-2.731-37.735 3.872-19.46 9.022-32.344 40.644-30.487 78.644 1.149 23.533 9.035 47.203 20.244 62.094-5.864 1.371-9.493 2.585-9.958 2.744a4.84 4.84 0 00-3.012 6.146 4.846 4.846 0 006.146 3.017c.356-.12 36.049-12.037 71.953-3.039a4.843 4.843 0 102.355-9.395 119.345 119.345 0 00-12.79-2.448c10.044-15.25 15.397-38.642 14.183-63.474-1.006-20.602-6.291-39.835-14.883-54.155-4.072-6.789-8.697-12.15-13.671-15.965 1.562.301 3.123.672 4.675 1.174 10.237 3.31 18.464 10.562 22.008 19.396a4.846 4.846 0 004.496 3.041 4.843 4.843 0 004.493-6.648c-4.601-11.47-15.075-20.818-28.017-25.004zm-2.287 28.989c7.784 12.977 12.584 30.609 13.514 49.647 1.247 25.529-4.793 49.039-15.793 61.943-.761-.039-1.515-.068-2.268-.094 8.549-12.106 12.764-31.117 11.317-51.558-.189-2.67-2.521-4.715-5.172-4.488l-19.695 1.394 17.556-22.09a4.84 4.84 0 00.709-4.8c-7.647-19.248-20.086-30.196-33.279-29.25-6.625.468-12.674 3.846-17.729 9.648 4.125-12.141 10.271-21.387 17.56-25.7.363-.122.72-.273 1.059-.488.351-.222.719-.392 1.074-.601 2.057-.919 4.189-1.47 6.386-1.578 8.772-.372 17.536 5.973 24.761 18.015zm-232.154-6.782c-13.131-3.41-26.348-1.211-37.528 6.052-8.033 4.294-14.808 12.672-19.591 24.514-6.255 15.483-8.479 35.305-6.265 55.812.303 2.809.701 5.578 1.159 8.317l.001.017c.013.138.054.264.077.398 2.908 17.096 8.741 32.65 16.802 44.457 1.828 2.677 3.752 5.036 5.721 7.217.076.079.107.183.19.258.05.045.103.083.153.128 7.911 8.613 16.814 13.248 25.859 13.248.963 0 1.928-.052 2.893-.156 12.422-1.341 22.932-11.162 29.594-27.655 6.255-15.483 8.479-35.305 6.263-55.813-2.215-20.507-8.621-39.397-18.039-53.187-4.477-6.557-9.417-11.638-14.619-15.148 1.63.21 3.262.493 4.894.917 10.444 2.711 19.095 9.458 23.141 18.048a4.843 4.843 0 108.761-4.126c-5.256-11.165-16.272-19.873-29.466-23.298zm-.708 29.068c8.535 12.498 14.361 29.816 16.409 48.765 2.048 18.951.054 37.114-5.615 51.146-4.627 11.455-11.134 18.773-18.556 21.011 13.363-9.294 20.575-33.34 16.979-60.962-.345-2.651-2.762-4.537-5.427-4.176l-19.025 2.477 5.376-7.648 10.493-12.717a3.71 3.71 0 00.619-3.631c.305-1.096.251-2.277-.245-3.339-8.623-18.463-21.489-28.507-34.395-26.797-6.764.88-12.678 5-17.358 11.368.913-3.644 2.004-7.129 3.314-10.372 3.616-8.95 8.396-15.307 13.845-18.76.164-.091.333-.169.489-.282.357-.256.735-.46 1.098-.702 1.999-1.029 4.078-1.678 6.221-1.91a16.998 16.998 0 011.819-.098c8.148.001 16.589 5.834 23.959 16.627zm113.837 170.622c.186 0 .375-.002.564-.006 7.266-.159 12.855-2.508 16.61-6.982 4.36-5.193 5.875-13.093 4.382-22.847-.769-5.014-2.273-9.723-3.728-14.276a228.665 228.665 0 01-1.567-5.033c-.76-2.585-.738-5.525-.714-8.64.032-4.007.063-8.151-1.491-12.313-.383-1.028-.884-2-1.491-2.893-3.055-4.486-7.478-7.308-12.455-7.947-5.352-.69-10.89 1.163-15.542 5.223-8.257 7.201-8.869 18.82-9.315 27.305l-.061 1.173c-.599 10.927-.129 30.782 9.729 40.969 4.028 4.161 9.096 6.267 15.079 6.267zm9.758-13.215c-1.911 2.275-4.988 3.429-9.406 3.526-3.473.038-6.238-1.009-8.47-3.314-4.529-4.681-6.264-13.331-6.867-20.91 5.228-1.603 17.683-3.851 27.11 6.63.601 4.686.581 10.557-2.367 14.068zm12.702 27.423a4.842 4.842 0 01-1.455 6.692c-6.875 4.42-16.472 5.475-24.065 5.475-6.629 0-11.73-.802-12.173-.875a4.84 4.84 0 01-4.001-5.552 4.84 4.84 0 015.55-4.009c5.453.878 21.368 2.011 29.452-3.186a4.845 4.845 0 016.692 1.455zM573.737 353.44a4.845 4.845 0 01-.262 6.845 4.846 4.846 0 01-6.835-.252c-1.264-1.349-31.528-32.841-82.943-14.897-32.392 11.3-42.078 43.217-42.173 43.538a4.846 4.846 0 01-6.01 3.285 4.842 4.842 0 01-3.285-6.009c.441-1.505 11.232-37.036 48.277-49.96 57.576-20.087 91.801 15.905 93.231 17.45zm153.982-40.875c-38.037 2.746-46.054 33.921-46.13 34.234a4.846 4.846 0 01-4.702 3.7 4.843 4.843 0 01-4.709-5.989c.093-.383 9.844-38.358 54.844-41.606 40.196-2.907 60.765 19.17 61.619 20.113a4.842 4.842 0 01-7.156 6.525c-.736-.797-18.428-19.514-53.766-16.977zm-524.603-23.559a4.827 4.827 0 01-2.971-1.02c-5.117-3.98-50.017-39.678-50.726-67.102-.183-7.059 2.447-12.993 7.817-17.633 8.617-7.452 17.126-10.149 25.312-8.011 8.76 2.289 14.894 9.775 18.587 15.893 3.998-5.881 10.48-13.087 19.319-15.504 7.789-2.127 15.751-.257 23.696 5.56 4.806 3.518 7.551 8.588 7.94 14.66 1.669 26.084-40.789 67.22-45.636 71.825a4.837 4.837 0 01-3.338 1.332zm-25.963-84.772c-4.149 0-8.703 2.125-13.584 6.343-3.156 2.729-4.576 5.924-4.469 10.056.463 17.911 29.162 45.119 43.702 57.073 13.733-13.692 40.707-44.307 39.621-61.241-.208-3.247-1.477-5.618-3.996-7.461-5.519-4.04-10.555-5.364-15.419-4.034-9.135 2.499-15.884 14.123-17.712 18.392-.783 1.829-2.62 3.036-4.592 2.934a4.843 4.843 0 01-4.411-3.187c-1.606-4.393-7.649-16.282-16.215-18.504a11.582 11.582 0 00-2.925-.371zM1048.091 408.3a4.827 4.827 0 01-2.971-1.02c-5.117-3.98-50.016-39.678-50.727-67.102-.183-7.061 2.448-12.993 7.817-17.635 8.618-7.453 17.127-10.157 25.314-8.01 8.758 2.289 14.894 9.774 18.587 15.893 3.996-5.881 10.478-13.089 19.317-15.505 7.78-2.127 15.751-.254 23.696 5.56 4.806 3.52 7.552 8.59 7.94 14.662 1.669 26.086-40.789 67.22-45.636 71.825a4.833 4.833 0 01-3.337 1.332zm-25.963-84.772c-4.149 0-8.703 2.123-13.584 6.342-3.156 2.727-4.575 5.922-4.469 10.054.46 17.89 29.162 45.113 43.704 57.075 13.734-13.692 40.705-44.304 39.621-61.239-.21-3.247-1.479-5.62-3.998-7.463-5.521-4.042-10.567-5.361-15.419-4.034-9.134 2.499-15.882 14.124-17.711 18.393-.783 1.829-2.637 3.036-4.592 2.934a4.843 4.843 0 01-4.411-3.187c-1.606-4.393-7.65-16.282-16.216-18.504a11.531 11.531 0 00-2.925-.371zM144.761 467.987a4.827 4.827 0 01-2.971-1.02c-3.924-3.052-38.344-30.426-38.896-51.75-.147-5.637 2.043-10.574 6.329-14.28 6.843-5.915 13.656-8.046 20.246-6.318 6.359 1.662 10.915 6.572 13.875 11.049 3.187-4.291 7.956-9.031 14.247-10.751 6.247-1.718 12.633-.232 18.959 4.398 3.932 2.88 6.178 7.023 6.495 11.984 1.299 20.301-31.233 51.828-34.947 55.356a4.831 4.831 0 01-3.337 1.332zm-19.674-64.244c-2.856 0-6.052 1.515-9.529 4.521-2.106 1.819-3.053 3.95-2.981 6.703.331 12.83 20.774 32.455 31.878 41.705 12.652-12.707 29.633-33.758 28.927-44.757-.136-2.117-.924-3.593-2.552-4.784-3.867-2.833-7.359-3.775-10.66-2.878-6.427 1.742-11.334 10.182-12.682 13.287-.791 1.821-2.663 2.945-4.597 2.916a4.838 4.838 0 01-4.401-3.18c-1.165-3.175-5.497-11.742-11.486-13.292a7.613 7.613 0 00-1.917-.241zm848.23-206.782a4.827 4.827 0 01-2.971-1.02c-3.077-2.395-30.082-23.877-30.524-40.884-.121-4.701 1.704-8.818 5.278-11.908 6.953-6.012 12.901-6.104 16.661-5.12 4.633 1.211 8.085 4.49 10.486 7.746 2.536-3.11 6.097-6.252 10.71-7.513 3.563-.976 9.159-1.141 15.608 3.577 3.314 2.426 5.205 5.915 5.473 10.087 1.036 16.208-24.472 40.936-27.383 43.702a4.833 4.833 0 01-3.338 1.333zm-15.229-49.717c-1.936 0-4.168 1.083-6.654 3.232-1.381 1.193-1.975 2.529-1.929 4.332.219 8.451 13.407 22.322 23.501 30.821 9.561-9.734 21.879-25.12 21.366-33.085-.085-1.319-.528-2.156-1.529-2.89-2.711-1.985-5.109-2.661-7.33-2.049-4.57 1.25-8.174 7.538-9.075 9.643a4.81 4.81 0 01-4.592 2.934 4.844 4.844 0 01-4.411-3.184c-.794-2.155-3.991-8.533-8.137-9.602a4.817 4.817 0 00-1.21-.152z"/><path fill="#EFEFEF" d="M310.671 933.82c101.575 3.273 203.069 8.145 304.683 10.503a12179.306 12179.306 0 00156.333 2.629c49.786.516 100.345-2.006 150.049.866-.047-68.861 1.5-137.724 1.989-206.584.873-123.058 1.187-246.478-5.046-369.417-1.063-20.958-2.942-41.833-6.954-62.342-15.388-41.526-35.992-74.95-67.698-106.676-30.912-30.933-68.282-56.414-97.252-89.075-.074-.083-.098-.181-.159-.269-1.027-.258-1.549-1.51-1.086-2.563 4.373-9.94 14.527-17.643 20.297-27.071 5.209-8.511 8.041-18.255 12.627-26.953-36.494 8.485-76.922 8.08-114.175 10.453-38.625 2.461-77.288 4.333-115.973 5.515-78.045 2.386-156.435 2.381-234.402-2.346 2.304 62.956 1.072 126.114.949 189.1-.439 224.723-.785 449.529-4.182 674.23zm479.123-540.697a4.812 4.812 0 01-1.802.35 4.846 4.846 0 01-4.496-3.041c-3.544-8.834-11.771-16.085-22.008-19.396a39.466 39.466 0 00-4.675-1.174c4.975 3.814 9.599 9.176 13.671 15.965 8.591 14.32 13.877 33.553 14.883 54.155 1.214 24.832-4.14 48.224-14.183 63.474 4.214.579 8.489 1.37 12.79 2.448a4.843 4.843 0 11-2.355 9.395c-35.904-8.998-71.596 2.919-71.953 3.039a4.846 4.846 0 01-6.146-3.017 4.84 4.84 0 013.012-6.146c.464-.159 4.093-1.374 9.958-2.744-11.209-14.891-19.095-38.561-20.244-62.094-1.857-38 11.027-69.622 30.487-78.644 11.577-6.603 24.877-8.031 37.735-3.872 12.942 4.185 23.416 13.533 28.017 25.005a4.842 4.842 0 01-2.691 6.297zM672.179 344.51c.093-.383 9.844-38.358 54.844-41.606 40.196-2.907 60.765 19.17 61.619 20.113a4.842 4.842 0 01-7.156 6.525c-.736-.798-18.428-19.514-53.766-16.978-38.037 2.746-46.054 33.921-46.13 34.234a4.846 4.846 0 01-4.702 3.7 4.84 4.84 0 01-4.709-5.988zm-8.018 260.107c-6.875 4.42-16.472 5.475-24.065 5.475-6.629 0-11.73-.802-12.173-.875a4.84 4.84 0 01-4.001-5.552 4.84 4.84 0 015.55-4.009c5.453.878 21.368 2.011 29.452-3.186a4.842 4.842 0 115.237 8.147zm-45.813-68.136l.061-1.173c.446-8.484 1.058-20.104 9.315-27.305 4.652-4.059 10.19-5.913 15.542-5.223 4.977.638 9.4 3.46 12.455 7.947a13.555 13.555 0 011.491 2.893c1.554 4.162 1.523 8.306 1.491 12.313-.024 3.115-.046 6.055.714 8.64a228.665 228.665 0 001.567 5.033c1.455 4.553 2.959 9.261 3.728 14.276 1.493 9.753-.022 17.654-4.382 22.847-3.755 4.474-9.345 6.823-16.61 6.982-.189.005-.378.006-.564.006-5.982 0-11.05-2.106-15.078-6.268-9.859-10.186-10.329-30.041-9.73-40.968zm-61.17-122.714a4.843 4.843 0 01-6.444-2.318c-4.047-8.59-12.698-15.337-23.141-18.048-1.632-.424-3.265-.706-4.894-.917 5.202 3.51 10.142 8.592 14.619 15.148 9.417 13.79 15.824 32.68 18.039 53.187 2.216 20.509-.008 40.33-6.263 55.813-6.662 16.492-17.172 26.313-29.594 27.655-.965.104-1.929.156-2.893.156-9.045 0-17.948-4.635-25.859-13.248-.05-.045-.103-.082-.153-.128-.083-.075-.114-.179-.19-.258-1.969-2.181-3.893-4.54-5.721-7.217-8.062-11.807-13.894-27.361-16.802-44.457-.024-.134-.065-.26-.077-.398l-.001-.017a144.075 144.075 0 01-1.159-8.317c-2.215-20.507.009-40.329 6.265-55.812 4.783-11.841 11.557-20.22 19.591-24.514 11.18-7.264 24.397-9.462 37.528-6.052 13.194 3.425 24.21 12.133 29.469 23.296a4.847 4.847 0 01-2.32 6.446zM432.229 385.95c.441-1.505 11.232-37.036 48.277-49.96 57.576-20.086 91.801 15.906 93.231 17.451a4.845 4.845 0 01-.262 6.845 4.846 4.846 0 01-6.835-.252c-1.264-1.349-31.528-32.841-82.943-14.897-32.392 11.3-42.078 43.217-42.173 43.538a4.846 4.846 0 01-6.01 3.285 4.844 4.844 0 01-3.285-6.01z"/><path fill="#FFF" d="M762.181 390.809c7.784 12.977 12.584 30.609 13.514 49.647 1.247 25.529-4.793 49.039-15.793 61.943-.761-.039-1.515-.068-2.268-.094 8.549-12.106 12.764-31.117 11.317-51.558-.189-2.67-2.521-4.715-5.172-4.488l-19.695 1.394 17.556-22.09a4.84 4.84 0 00.709-4.8c-7.647-19.248-20.086-30.196-33.279-29.25-6.625.468-12.674 3.846-17.729 9.648 4.125-12.141 10.271-21.387 17.56-25.7.363-.122.72-.273 1.059-.488.351-.222.719-.392 1.074-.601 2.057-.919 4.189-1.47 6.386-1.578 8.772-.372 17.536 5.973 24.761 18.015zm-258.641 5.758c-2.143.231-4.222.881-6.221 1.91-.363.243-.741.446-1.098.702-.156.112-.325.191-.489.282-5.45 3.452-10.229 9.809-13.845 18.76-1.31 3.243-2.401 6.728-3.314 10.372 4.68-6.368 10.594-10.489 17.358-11.368 12.906-1.71 25.772 8.334 34.395 26.797.497 1.063.55 2.243.245 3.339a3.71 3.71 0 01-.619 3.631l-10.493 12.717-5.376 7.648 19.025-2.477c2.666-.361 5.082 1.524 5.427 4.176 3.596 27.621-3.616 51.668-16.979 60.962 7.422-2.239 13.929-9.556 18.556-21.011 5.669-14.031 7.663-32.194 5.615-51.146-2.048-18.95-7.874-36.268-16.409-48.765-7.37-10.793-15.811-16.626-23.959-16.626a16.74 16.74 0 00-1.819.097z"/><path fill="#C1272D" d="M1087.4 335.76c1.085 16.935-25.887 47.547-39.621 61.239-14.542-11.962-43.243-39.184-43.704-57.075-.106-4.132 1.313-7.327 4.469-10.054 4.88-4.218 9.435-6.342 13.584-6.342.999 0 1.975.123 2.926.37 8.566 2.221 14.61 14.11 16.216 18.504a4.843 4.843 0 004.411 3.187c1.955.102 3.809-1.105 4.592-2.934 1.829-4.269 8.577-15.895 17.711-18.393 4.852-1.327 9.898-.008 15.419 4.034 2.518 1.844 3.787 4.216 3.997 7.464zM985.512 147.605c-4.57 1.25-8.174 7.538-9.075 9.643a4.81 4.81 0 01-4.592 2.934 4.844 4.844 0 01-4.411-3.184c-.794-2.155-3.991-8.533-8.137-9.602a4.797 4.797 0 00-1.209-.151c-1.936 0-4.168 1.083-6.654 3.232-1.381 1.193-1.975 2.529-1.929 4.332.219 8.451 13.407 22.322 23.501 30.821 9.561-9.734 21.879-25.12 21.366-33.085-.085-1.319-.528-2.156-1.529-2.89-2.712-1.985-5.11-2.661-7.331-2.05zM643.507 574.029c4.419-.098 7.496-1.252 9.406-3.526 2.948-3.512 2.969-9.383 2.367-14.067-9.427-10.48-21.882-8.233-27.11-6.63.603 7.579 2.338 16.229 6.867 20.91 2.233 2.304 4.998 3.35 8.47 3.313zm-405.08-365.025c-5.519-4.04-10.555-5.364-15.419-4.034-9.135 2.499-15.884 14.123-17.712 18.392-.783 1.829-2.62 3.036-4.592 2.934a4.843 4.843 0 01-4.411-3.187c-1.606-4.393-7.649-16.282-16.215-18.504a11.635 11.635 0 00-2.926-.37c-4.149 0-8.703 2.125-13.584 6.343-3.156 2.729-4.576 5.924-4.469 10.056.463 17.911 29.162 45.119 43.702 57.073 13.733-13.692 40.707-44.307 39.621-61.241-.207-3.248-1.476-5.619-3.995-7.462zM142.89 420.456a4.838 4.838 0 01-4.401-3.18c-1.165-3.175-5.497-11.742-11.486-13.292a7.607 7.607 0 00-1.917-.241c-2.856 0-6.052 1.515-9.529 4.521-2.106 1.819-3.053 3.95-2.981 6.703.331 12.83 20.774 32.455 31.878 41.705 12.652-12.707 29.633-33.758 28.927-44.757-.136-2.117-.924-3.593-2.552-4.784-3.867-2.833-7.359-3.775-10.66-2.878-6.427 1.742-11.334 10.182-12.682 13.287-.791 1.82-2.663 2.944-4.597 2.916z"/><path fill="#FFC2C7" d="M493.443 1065.093c9.198 14.087 14.046 30.549 12.439 41.795-15.953 9.361-88.678 35.086-142.824-24.443 1.275-24.827 6.108-86.181 14.894-102.579.071-.134.136-.27.194-.408 1.673-3.976 11.068-8.079 23.622-7.97 9.924.058 22.498 2.92 27.331 10.601-6.939 11.722-7.697 33.412-4.681 54.034-10.753 4.156-21.633 11.048-33.653 21a4.843 4.843 0 006.176 7.46c25.342-20.977 44.009-26.945 68.874-22.03 9.421 1.862 19.493 10.078 27.628 22.54zm221.07 55.064c15.884 10.797 70.671 4.89 91.11 1.606 17.709-6.93 46.235-44.85 67.14-78.223a3.312 3.312 0 00-.526-4.152c-6.715-6.358-23.997-21.114-39.818-21.226-41.588 3.314-41.719 40.575-41.788 60.606-.006 1.674-.011 3.211-.041 4.578-.057 2.674-2.317 4.791-4.944 4.739a4.842 4.842 0 01-4.739-4.944c.027-1.316.033-2.795.038-4.406.029-8.238.086-21.061 3.75-33.526-2.353-2.793-6.381-4.762-10.087-4.762-1.522 0-1.583.028-3.147 1.734a46.34 46.34 0 01-2.475 2.585c-7.412 7.136-15.797 13.191-23.904 19.046l-.385.277c-8.85 6.391-21.018 9.695-25.84 10.819-2.987.697-5.883 1.04-8.639 1.04-1.964 0-3.825-.234-5.631-.581-2.054 8.868-.568 37.655 9.926 44.79z"/><path fill="#95BB4C" d="M346.669 1084.49c.208-1.528.689-5.156 1.359-10.213 3.027-22.869 12.108-91.489 13.97-99.267 1.259-.492 4.361-.317 7.396.321-.023.051-.056.097-.079.149-11.829 22.5-15.863 104.975-16.03 108.485a4.86 4.86 0 001.209 3.437c28.93 32.726 64.223 42.766 94.646 42.764 27.183 0 50.471-8.015 61.853-15.023.489.922.98 2.329 1.01 3.864.024 1.187-.255 1.86-.448 2.024-12.994 11.003-40.707 16.435-82.13 16.142-49.138-.347-80.623-45.351-82.756-52.683zm106.072-97.654c-3.646-3.008-7.611-4.37-10.902-3.736-6.252 1.21-12.302 19.614-8.066 50.085 3.585-.864 7.196-1.4 10.856-1.688-1.469-5.316-1.313-11.648-1.234-13.371.361-7.816 2.261-12.841 5.643-14.938a4.849 4.849 0 012.551-.727h.021l1.116.003c3.109 0 6.083-.122 8.995-.298-1.112-5.869-4.32-11.487-8.98-15.33zm263.917 78.638c8.855-2.063 17.216-5.516 22.367-9.236l.386-.279c7.835-5.658 15.937-11.509 22.856-18.171.203-.195.38-.382.572-.574.008-.008.01-.02.019-.029a41.88 41.88 0 001.36-1.441c.103-.113.212-.228.317-.341 2.32-2.71 3.536-5.393 3.434-9.404-.115-4.519-2.215-8.788-5.758-11.711-5.379-4.434-12.433-5.052-18.882-1.658-.398.21-.804.474-1.207.715a355.901 355.901 0 014.377 13.635c.213.706.26 1.453.14 2.182-.148.899-1.044 5.547-4.092 8.851-6.176 6.684-14.065 10.724-23.45 12.012a4.843 4.843 0 01-5.373-3.687c-.975-4.139-2.144-8.071-3.396-11.909-4.576 2.314-9.25 5.385-12.076 9.639-3.615 5.435-3.757 14.355 1.789 18.972 5.152 4.288 12.621 3.363 16.617 2.434zm7.288 72.364c7.953 2.763 69.221 5.375 95.318-5.289 24.153-9.865 63.776-68.073 66.538-77.266-.507-2.501-2.476-5.473-4.375-7.495-.155.298-.276.607-.457.895-13.631 21.762-47.974 73.349-72.421 82.33a4.767 4.767 0 01-.891.233c-4.633.755-30.962 4.852-56.14 4.852-13.355 0-26.329-1.188-35.628-4.604 1.836 2.713 4.635 5.154 8.056 6.344z"/><path fill="#C6C6C6" d="M869.492 203.93c7.27 12.808 14.162 25.869 20.315 39.257-9.791-13.854-20.946-26.702-31.954-38.234-16.281-17.058-33.952-32.721-51.628-48.303-17.397-15.336-34.58-31.989-53.554-45.436 8.125-4.731 14.434-14.359 19.202-21.768 4.701-7.306 9.815-16.766 11.74-26.051 27.645 47.43 58.775 92.787 85.879 140.535z"/></svg>