<?xml version="1.0" encoding="utf-8"?>
<!-- Designed by Vexels.com - 2016 All Rights Reserved - https://vexels.com/terms-and-conditions/  -->

<svg version="1.0" id="Capa_1" xmlns="http://www.w3.org/2000/svg" xmlns:xlink="http://www.w3.org/1999/xlink" x="0px" y="0px"
	 width="1200px" height="1200px" viewBox="0 0 1200 1200" enable-background="new 0 0 1200 1200" xml:space="preserve">
<g>
	<g>
		<g>
			<path d="M667.04,420.924c0,0,14.406,43.246,14.406,39.127c0-4.127,10.297-55.601,13.39-56.627
				c3.093-1.025-16.492-31.915-10.296-46.33c6.178-14.424,9.266-23.678,9.266-23.678s-18.694-7.67-22.758-19.848
				c-4.051-12.186-17.398-25.449-17.398-25.449s-22.644,23.686-14.419,59.703C647.476,383.865,667.04,420.924,667.04,420.924z"/>
			<path d="M558.002,445.577c3.377-1.365,14.221,0.66,25.051,0.66c10.826,0,13.533,5.424,18.945,18.28
				c5.419,12.864,1.36,18.957-12.852,35.212c-14.212,16.237-1.364,14.89,0,12.848c1.369-2.025,14.89-11.509,27.08-17.585
				c12.178-6.101,23.004-12.204,23.004-12.204l-0.678,17.619c0,0-19.623,19.619-27.755,24.364
				c-8.127,4.746-10.136,15.577-14.212,21.67c-4.063,6.076-4.746,20.966-1.348,27.067c3.386,6.102,0,2.721-0.678,8.797
				c-0.216,1.933-0.835,5.271-1.411,8.924h18.301c4.649-3.678,11.051-9.593,8.136-6.22c-1.008,1.195-1.979,3.433-2.89,6.22h8.809
				c0.352-1.508,0.661-2.753,0.877-3.508c0.852-3.016,3.081-1.881,5.11,3.508h54.974c3.496-9.482,4.916-25.271,7.611-35.999
				c3.377-13.551-6.097-21.652-16.262-35.203c-10.149-13.534-25.712-32.483-29.771-37.238c-4.072-4.729-10.839-35.194-12.868-38.576
				c-2.03-3.381-33.839-39.262-38.589-46.034l-6.75-4.05c0,0-8.131,8.787-15.576,9.466c-7.466,0.686-14.916,0-20.314,4.067
				c-5.419,4.068-20.309,16.255-20.309,16.255S554.617,446.924,558.002,445.577z"/>
			<path d="M704.9,539.669c1.487,5.195,5.834,28.772,10.343,51.559H818.2c4.013-15.372,6.784-28.33,6.5-30.584
				c-0.665-5.415,4.768-16.254,2.051-17.601c-2.716-1.364-22.335-17.601-22.335-17.601s26.394,2.721,31.818,3.39
				c5.407,0.686,2.695-6.763,2.03-13.542c-0.694-6.763-8.136-16.246-9.5-22.331c-1.326-6.101-2.694-20.322,0-28.44
				c2.716-8.119,10.847-33.839,16.945-39.262c0.835-0.72,1.585-1.687,2.268-2.78c4.881,1.407,17.017,5.576,29.534,14.974
				c16.246,12.186,3.39,2.704,2.046-5.406c-1.36-8.127-18.297-20.313-22.347-24.381l-6.169,7.611
				c1.974-6.593,2.602-14.102,2.106-17.094c-0.678-4.05-0.678-11.508-0.331-17.22c-32.801,1.737-105.262-5.788-105.262-5.788
				s-46.716-4.746-41.979,2.703c4.742,7.449,29.792,12.864,30.453,16.255c0.686,3.381-18.263,6.762-25.025,7.44
				c-6.784,0.678,4.72,7.449,5.403,9.475c0.669,2.033-10.149,14.906-20.314,19.636c-10.135,4.745,2.716,20.305,6.098,66.33
				C705.573,543.042,702.188,530.187,704.9,539.669z"/>
			<path d="M949.262,503.102c1.374,5.424-21.644-12.856-21.644-12.856s29.776,27.085,31.122,39.941
				c1.373,12.855,0,13.533,10.165,25.712c9.178,11.017,16.716,15.991,33.059,35.33h35.461c-3.331-20.059-7.762-41.754-15.047-55.618
				c-14.224-27.085-41.97-70.415-41.97-70.415s-38.589-21.661-48.754-25.042l3.403,1.355c0,0-23.703,2.703-8.131,18.271
				C942.508,475.348,947.92,497.695,949.262,503.102z"/>
			<path d="M947.92,556.593c-6.784-3.398-10.852-7.457-23.017-21.669c-12.173-14.22-12.173-22.347-12.86-29.102
				c-0.686-6.779,6.763-8.813,1.348-13.542c-5.416-4.737-18.953-21.67-27.08-27.762c-8.115-6.085-29.081-22.331-34.509-22.331
				c-16.258,0-21.674,29.78-21.674,29.78s28.437,10.821,27.08,12.864c-1.342,2.025,29.784,6.771,34.534,8.127
				c4.725,1.339,13.521,26.39,33.161,52.796C944.542,572.153,954.678,559.975,947.92,556.593z"/>
			<path d="M449.782,591.228c-6.407-5.746-15.135-12.059-16.326-13.661c-2.077-2.754,10.157-4.06,10.157-4.06
				s20.3-6.101,23.682-7.448c3.39-1.348,10.144,5.424,12.178,10.169c2.03,4.737,18.292,8.093,19.64,10.822
				c0.225,0.457-0.021,2.008-0.538,4.178h48.712c-0.967-9.948,7.144-34.601-1.462-54.279c-9.479-21.661-55.513-69.711-56.195-73.102
				c0,0-3.572-3.771-7.072-7.135c4.004-7.915,7.953-18.415,6.309-18.415c-2.627,0-21.745-13.899-24.339-13.899
				c-2.605,0-16.508,2.602-16.508,2.602s8.687-13.025,15.64-12.16c6.936,0.856,17.372,1.729,28.669,3.475
				c11.292,1.737,38.216,1.737,38.216,1.737s0.889-9.551,11.296-15.636c10.411-6.076,23.458-19.983,36.483-21.72
				c13.034-1.737,46.911-3.483,46.911-3.483s-22.584-11.28-38.224-15.618c-15.636-4.364-39.953-1.755-38.211-15.644
				c1.733-13.89-13.034-22.576-13.034-22.576s18.229-8.695,18.229-26.068c0-17.373,6.089-31.262,6.089-31.262l-17.36-29.542
				c0,0-38.22,27.796-52.999,37.347c-14.767,9.559-22.581,19.11-30.402,29.534c-7.81,10.432-16.505,19.991-19.975,22.584
				c-3.483,2.602-10.428,8.695-18.25,13.899c-7.814,5.228-30.399,4.355-35.614,6.085c-5.216,1.745,10.423,13.033-13.89,31.262
				c-24.33,18.245-46.92,72.11-62.55,79.059c-15.636,6.948-33.013,13.042-33.013,13.042s-52.119,38.211-65.149,58.186
				c-13.042,19.991-16.517,40.83-22.593,43.44c-3.482,1.492-15.817,10.687-25.715,18.288H449.782z M440.545,384.891
				c8.237,0,32.949-18.533,32.949-21.618c0-3.094,13.36-20.601,13.36-20.601l-16.453-1.017c0,0,29.86-23.661,26.75-22.653
				c-3.076,1.026-49.402,10.296-44.254,4.119c5.136-6.169,57.653-32.932,60.737-31.923c3.102,1.042,27.797-12.347,27.797-12.347
				v11.339l-4.127,18.517l-8.234,16.474c0,0-7.198,20.594-14.411,27.797c-7.208,7.203-26.771,46.33-26.771,46.33
				s-64.25,11.263-64.86,8.237C421.999,402.399,432.295,384.891,440.545,384.891z M271.707,489.89
				c18.521-10.28,50.44-27.788,56.623-31.898c6.174-4.11,42.208-21.618,42.208-21.618s22.644-17.509,14.403,13.373
				c-8.234,30.89-15.441,31.916-19.538,30.89c-4.127-1.026-14.415,25.737-13.402,29.856c1.038,4.127-25.725,10.297-25.725,10.297
				l-5.156,21.618l-28.822,1.034c0,0-12.36-13.373-29.855-13.373c-17.492,0-23.683-2.068-23.683-2.068
				C246.987,517.695,253.182,500.195,271.707,489.89z"/>
		</g>
	</g>
	<g>
		<path d="M274.445,818.363c0,3.187-0.458,6.356-1.365,9.534c-0.907,3.187-2.046,6.128-3.407,8.865
			c-4.999,9.992-11.919,17.483-20.779,22.483c-8.865,4.992-18.742,7.492-29.644,7.492c-7.042,0-13.865-1.127-20.449-3.398
			c-6.585-2.271-12.436-5.559-17.542-9.882c-5.115-4.314-9.258-9.483-12.436-15.5c-3.187-6.026-4.775-12.789-4.775-20.272V693.652
			c0-8.398,1.305-16.237,3.919-23.517c2.61-7.263,6.42-13.508,11.42-18.729c4.991-5.228,10.953-9.381,17.885-12.441
			c6.923-3.068,14.707-4.602,23.335-4.602c7.046,0,13.805,1.085,20.275,3.238c6.475,2.161,12.216,5.288,17.207,9.381
			c5,4.077,8.966,9.085,11.923,14.992c2.95,5.898,4.433,12.593,4.433,20.102v14.305c0,1.365-0.793,2.839-2.386,4.424
			c-1.59,1.602-3.06,2.399-4.428,2.399H238.33c-3.406,0-5.334-1.755-5.796-5.28c-0.458-3.535-0.738-7.339-0.852-11.416
			c-0.119-4.092-0.847-7.906-2.216-11.424c-1.36-3.525-4.767-5.28-10.216-5.28c-4.775,0-8.127,1.814-10.055,5.458
			c-1.928,3.627-2.894,7.492-2.894,11.576V806.77c0,2.509,0.056,5.178,0.169,8.009c0.115,2.847,0.568,5.449,1.365,7.839
			c0.788,2.39,2.042,4.432,3.745,6.135c1.703,1.695,4.258,2.551,7.67,2.551c4.08,0,7.263-1.814,9.542-5.441
			c2.267-3.635,3.403-7.279,3.403-10.915c0-1.348-0.059-3.288-0.165-5.779c-0.123-2.5-0.064-5,0.165-7.5
			c0.225-2.499,0.801-4.711,1.703-6.644c0.903-1.94,2.39-2.898,4.432-2.898h29.301c2.267,0,3.92,1.077,4.94,3.238
			c1.021,2.152,1.703,4.711,2.047,7.677c0.334,2.941,0.394,5.898,0.169,8.848C274.559,814.846,274.445,816.998,274.445,818.363z"/>
		<path d="M401.876,857.202c0.22,1.822-0.288,3.305-1.533,4.44c-1.255,1.127-2.78,1.695-4.602,1.695h-30.665
			c-3.632,0-5.847-1.873-6.639-5.628c-0.801-3.745-1.314-7.889-1.539-12.432c-0.228-4.542-0.797-8.694-1.699-12.441
			c-0.911-3.737-3.292-5.627-7.161-5.627h-13.623c-4.093,0-6.589,1.89-7.496,5.627c-0.915,3.746-1.423,7.899-1.533,12.441
			c-0.119,4.543-0.572,8.687-1.368,12.432c-0.797,3.755-3.009,5.628-6.64,5.628h-29.309c-2.034,0-3.517-0.678-4.428-2.051
			c-0.907-1.356-1.245-2.941-1.017-4.763v-1.373c1.132-18.61,3.178-37.127,6.136-55.533c2.94-18.398,5.445-36.796,7.495-55.186
			c1.581-14.093,3.403-28.067,5.445-41.923c2.051-13.839,4.542-27.703,7.495-41.559c0-0.678,0.285-2.33,0.857-4.94
			c0.563-2.61,1.305-5.339,2.212-8.178c0.907-2.839,1.821-5.399,2.728-7.67c0.907-2.271,1.699-3.407,2.386-3.407h47.699
			c0.686,0,1.474,1.195,2.386,3.576c0.907,2.399,1.758,5.06,2.559,8.009c0.788,2.949,1.471,5.805,2.043,8.517
			c0.568,2.721,0.962,4.424,1.195,5.119c2.944,13.618,5.504,27.364,7.661,41.229c2.161,13.847,4.148,27.821,5.97,41.898
			c2.496,18.627,5.33,37.135,8.512,55.533c3.187,18.398,5.331,37.034,6.475,55.889V857.202z M350.762,781.219l-8.856-99.491
			l-10.224,100.863v0.669c-0.225,2.509,0.86,4.153,3.241,4.95c2.386,0.797,4.483,1.186,6.301,1.186c2.5,0,4.775-0.5,6.813-1.534
			c2.047-1.017,2.95-3.009,2.725-5.957V781.219z"/>
		<path d="M566.443,860.786c-1.14,1.703-2.843,2.551-5.11,2.551h-27.945c-2.496,0-4.25-0.848-5.275-2.551
			c-1.026-1.703-1.534-3.694-1.534-5.974V712.059c-0.91,1.135-2.042,4.533-3.41,10.22c-1.356,5.678-2.721,11.873-4.08,18.568
			c-1.369,6.703-2.678,13.067-3.92,19.084c-1.254,6.016-1.992,10.042-2.216,12.093c-0.457,2.95-1.139,7.322-2.051,13.118
			c-0.907,5.788-2.212,11.585-3.915,17.365c-1.703,5.805-3.86,10.915-6.47,15.348c-2.618,4.423-5.966,6.635-10.051,6.635
			c-4.093,0-7.386-2.262-9.882-6.805c-2.504-4.551-4.491-9.822-5.966-15.847c-1.483-6.026-2.555-11.975-3.233-17.89
			c-0.686-5.906-1.254-10.339-1.699-13.279c-0.466-1.822-1.258-5.797-2.399-11.941c-1.132-6.128-2.377-12.542-3.737-19.246
			c-1.369-6.703-2.674-12.839-3.92-18.389c-1.254-5.576-2.106-8.805-2.563-9.72v143.778c0,1.831-0.454,3.644-1.356,5.458
			c-0.919,1.831-2.499,2.729-4.775,2.729h-28.618c-2.504,0-4.258-0.848-5.28-2.551c-1.021-1.703-1.539-3.584-1.539-5.635V645.602
			c0-2.491,0.738-4.585,2.216-6.288c1.479-1.712,3.466-2.56,5.966-2.56h44.296c2.721,0,4.992,0.797,6.81,2.39
			c1.364,1.585,2.555,4.204,3.581,7.839c1.021,3.627,1.983,7.552,2.894,11.738c0.907,4.211,1.593,8.246,2.046,12.119
			c0.449,3.847,0.907,6.804,1.356,8.847c0.457,2.5,0.915,5.847,1.368,10.051c0.453,4.204,1.021,8.466,1.703,12.771
			c0.682,4.33,1.364,8.466,2.051,12.441c0.678,3.974,1.36,7.101,2.038,9.364c0.902-1.577,1.817-4.474,2.724-8.687
			c0.902-4.195,1.755-8.687,2.559-13.449c0.789-4.78,1.475-9.373,2.038-13.796c0.568-4.433,1.076-7.678,1.539-9.712
			c0.224-1.83,0.678-4.661,1.36-8.534c0.686-3.856,1.42-7.839,2.216-11.915c0.792-4.077,1.703-7.949,2.724-11.594
			c1.026-3.61,2.216-6.127,3.581-7.483c1.361-1.593,3.288-2.39,5.793-2.39h43.614c2.262,0,4.199,0.797,5.788,2.39
			c1.593,1.585,2.386,3.517,2.386,5.788v210.219C568.146,857.202,567.582,859.084,566.443,860.786z"/>
		<path d="M701.709,708.643c0,4.551-0.288,9.492-0.843,14.822c-0.576,5.34-1.598,10.559-3.072,15.678
			c-1.483,5.102-3.47,9.941-5.966,14.491c-2.5,4.533-5.572,8.39-9.203,11.576c-4.539,3.864-9.538,6.813-14.988,8.856
			c-5.449,2.042-11.127,3.635-17.038,4.762c-1.817,0.466-3.745,0.686-5.787,0.686c-2.047,0-3.983,0.229-5.797,0.678
			c-2.496,0.686-4.148,1.712-4.937,3.068c-0.8,1.365-1.198,3.305-1.198,5.797v65.754c0,2.508-0.742,4.559-2.212,6.135
			c-1.483,1.593-3.462,2.39-5.958,2.39h-25.215c-5.911,0-8.864-2.95-8.864-8.856v-208.88c0-2.491,0.856-4.585,2.563-6.288
			c1.703-1.712,3.797-2.56,6.301-2.56h43.614c10.898,0,20.042,1.933,27.427,5.797c7.373,3.864,13.399,9.085,18.06,15.67
			c4.652,6.593,8.004,14.253,10.055,23C700.683,689.966,701.709,699.11,701.709,708.643z M660.142,702.855
			c0-2.949-0.288-6.186-0.848-9.711c-0.568-3.517-1.593-6.814-3.072-9.882c-1.479-3.068-3.466-5.669-5.962-7.847
			c-2.504-2.152-5.572-3.229-9.199-3.229c-2.504,0-4.373,0.975-5.622,2.898c-1.25,1.933-1.873,3.907-1.873,5.958v55.541
			c0,2.509,0.741,4.602,2.215,6.305c1.479,1.695,3.463,2.55,5.962,2.55c3.403,0,6.246-1.008,8.517-3.059
			c2.267-2.051,4.139-4.602,5.618-7.67c1.48-3.059,2.564-6.245,3.242-9.542c0.678-3.288,1.021-6.297,1.021-9.025V702.855z"/>
		<path d="M759.972,860.786c-1.145,1.703-2.844,2.551-5.115,2.551h-29.305c-2.043,0-3.695-0.797-4.932-2.39
			c-1.258-1.576-1.881-3.279-1.881-5.102V645.957c0-2.509,0.623-4.653,1.881-6.483c1.237-1.805,3.115-2.721,5.619-2.721h27.254
			c2.5,0,4.487,0.848,5.966,2.56c1.474,1.703,2.212,3.797,2.212,6.288v209.549C761.671,857.202,761.107,859.084,759.972,860.786z"/>
		<path d="M902.559,860.948c-1.026,1.593-2.784,2.39-5.275,2.39h-27.263c-2.505,0-5.055-2.95-7.67-8.856
			c-2.61-5.916-5.106-12.619-7.496-20.102c-2.381-7.509-4.483-14.72-6.3-21.644c-1.822-6.923-3.068-11.525-3.746-13.805
			c-3.182-11.576-6.36-22.991-9.538-34.237c-3.187-11.246-6.364-22.661-9.542-34.246v126.754c0,1.822-0.572,3.305-1.708,4.44
			c-1.135,1.127-2.606,1.695-4.427,1.695h-28.623c-2.042,0-3.572-0.678-4.598-2.051c-1.021-1.356-1.533-2.941-1.533-4.763v-212.27
			c0-2.051,0.737-3.805,2.216-5.288c1.474-1.474,3.233-2.212,5.28-2.212h25.211c1.589,0,3.292,1.195,5.119,3.576
			c1.809,2.399,3.631,5.509,5.445,9.382c1.822,3.856,3.521,8.051,5.11,12.585c1.589,4.559,3.068,8.932,4.427,13.118
			c1.365,4.212,2.556,8.085,3.585,11.585c1.017,3.525,1.75,5.975,2.216,7.348c3.178,10.203,6.407,20.212,9.707,29.966
			c3.285,9.771,6.645,19.762,10.051,29.991V644.932c0-5.458,2.5-8.178,7.496-8.178h26.238c2.267,0,4.025,0.848,5.279,2.56
			c1.242,1.703,1.878,3.576,1.878,5.618v210.219C904.098,857.43,903.585,859.372,902.559,860.948z"/>
		<path d="M1033.059,861.287c-1.936,1.373-3.924,2.051-5.966,2.051h-22.491c-1.136,0-2.156-1.364-3.063-4.093
			c-0.911-2.721-1.474-4.542-1.699-5.44c-4.551,3.864-9.258,6.982-14.148,9.364c-4.886,2.381-10.386,3.568-16.517,3.568
			c-7.496,0-14.034-1.585-19.597-4.762c-5.568-3.179-10.111-7.314-13.627-12.441c-3.526-5.11-6.132-10.899-7.835-17.382
			c-1.703-6.457-2.559-13.118-2.559-19.924v-115.16c0-7.958,1.364-15.678,4.093-23.178c2.721-7.491,6.589-14.186,11.581-20.093
			c4.996-5.915,10.953-10.627,17.89-14.153c6.928-3.508,14.593-5.28,22.996-5.28c7.038,0,13.852,1.026,20.453,3.076
			c6.58,2.034,12.314,5.11,17.195,9.186c4.886,4.102,8.805,9.094,11.762,15c2.945,5.916,4.424,12.721,4.424,20.45v14.305
			c0,1.822-0.568,3.407-1.703,4.771c-1.135,1.356-2.61,2.051-4.427,2.051h-29.979c-3.182,0-5-1.755-5.458-5.28
			c-0.454-3.535-0.797-7.339-1.017-11.416c-0.233-4.092-1.03-7.906-2.39-11.424c-1.364-3.525-4.771-5.28-10.22-5.28
			c-4.552,0-7.84,1.881-9.882,5.61c-2.047,3.754-3.063,7.559-3.063,11.424v119.254c0,2.5,0.046,5.178,0.169,8.009
			c0.102,2.839,0.619,5.458,1.533,7.839c0.903,2.381,2.268,4.313,4.089,5.788c1.809,1.483,4.433,2.229,7.835,2.229
			c2.953,0,5.847-1.136,8.682-3.415c2.843-2.272,4.263-4.992,4.263-8.178v-30.669c0-2.483-0.738-4.195-2.216-5.102
			c-1.474-0.923-3.123-1.652-4.933-2.229c-1.826-0.56-3.475-1.246-4.945-2.025c-1.483-0.814-2.216-2.458-2.216-4.958v-22.483
			c0-1.814,0.683-3.407,2.043-4.771c1.368-1.365,2.953-2.051,4.775-2.051h42.245c1.822,0,3.411,0.686,4.772,2.051
			c1.364,1.364,2.042,2.957,2.042,4.771v104.948C1035.949,858.108,1034.987,859.93,1033.059,861.287z"/>
	</g>
	<g>
		<path d="M337.19,960.066c-0.254,0.406-0.695,0.593-1.31,0.593h-6.737c-0.619,0-1.25-0.729-1.899-2.177
			c-0.644-1.458-1.258-3.119-1.855-4.984c-0.589-1.848-1.102-3.635-1.555-5.347c-0.45-1.711-0.758-2.839-0.924-3.415
			c-0.788-2.856-1.576-5.678-2.356-8.458c-0.797-2.78-1.576-5.602-2.36-8.466v31.33c0,0.466-0.148,0.814-0.424,1.093
			c-0.284,0.288-0.644,0.423-1.101,0.423h-7.073c-0.504,0-0.885-0.169-1.139-0.509c-0.25-0.33-0.378-0.72-0.378-1.178v-52.491
			c0-0.492,0.178-0.924,0.547-1.305c0.369-0.356,0.801-0.551,1.305-0.551h6.233c0.394,0,0.817,0.305,1.267,0.907
			c0.449,0.585,0.898,1.348,1.351,2.314c0.445,0.949,0.869,1.992,1.263,3.11c0.391,1.119,0.754,2.203,1.093,3.237
			c0.335,1.051,0.636,2,0.877,2.873c0.263,0.864,0.441,1.466,0.559,1.814c0.784,2.517,1.577,4.999,2.394,7.407
			c0.814,2.415,1.644,4.89,2.487,7.415v-27.042c0-1.348,0.614-2.034,1.852-2.034h6.488c0.559,0,1,0.229,1.31,0.644
			c0.305,0.432,0.462,0.882,0.462,1.39v51.982C337.567,959.209,337.444,959.684,337.19,960.066z"/>
		<path d="M370.338,959.142c0.051,0.466-0.068,0.814-0.372,1.093c-0.314,0.288-0.695,0.423-1.145,0.423h-7.58
			c-0.898,0-1.445-0.457-1.644-1.389c-0.195-0.916-0.323-1.949-0.378-3.068c-0.056-1.127-0.203-2.153-0.423-3.085
			c-0.22-0.916-0.814-1.382-1.767-1.382h-3.373c-1.008,0-1.627,0.466-1.852,1.382c-0.22,0.932-0.356,1.958-0.377,3.085
			c-0.03,1.119-0.144,2.152-0.334,3.068c-0.2,0.932-0.746,1.389-1.644,1.389h-7.254c-0.5,0-0.864-0.169-1.085-0.509
			c-0.229-0.33-0.314-0.72-0.259-1.178v-0.331c0.279-4.61,0.784-9.186,1.517-13.729c0.729-4.559,1.348-9.102,1.852-13.653
			c0.39-3.482,0.843-6.932,1.351-10.355c0.509-3.432,1.123-6.856,1.852-10.289c0-0.169,0.068-0.568,0.212-1.211
			c0.14-0.661,0.318-1.33,0.547-2.034c0.229-0.695,0.45-1.339,0.67-1.898c0.225-0.551,0.423-0.848,0.597-0.848h11.792
			c0.169,0,0.364,0.305,0.589,0.907c0.225,0.585,0.436,1.237,0.631,1.966c0.2,0.728,0.369,1.432,0.509,2.101
			c0.14,0.686,0.242,1.102,0.288,1.263c0.733,3.382,1.365,6.789,1.899,10.212c0.538,3.423,1.025,6.873,1.474,10.348
			c0.614,4.618,1.318,9.186,2.11,13.746c0.784,4.542,1.317,9.144,1.597,13.805V959.142z M357.703,940.354l-2.187-24.602
			l-2.53,24.949v0.161c-0.059,0.619,0.208,1.034,0.797,1.229c0.598,0.194,1.111,0.288,1.564,0.288c0.614,0,1.178-0.128,1.683-0.382
			c0.508-0.246,0.728-0.745,0.673-1.466V940.354z"/>
		<path d="M393.299,913.481c-0.313,0.288-0.682,0.466-1.097,0.542c-0.424,0.093-0.877,0.119-1.348,0.093
			c-0.479-0.034-0.911-0.042-1.309-0.042c-0.623,0-1.22,0.084-1.809,0.254c-0.593,0.161-0.881,0.644-0.881,1.423v43.22
			c0,0.635-0.242,1.067-0.72,1.314c-0.475,0.254-0.967,0.372-1.475,0.372h-6.232c-0.564,0-1.068-0.178-1.517-0.55
			c-0.454-0.348-0.679-0.857-0.679-1.467v-42.89c0-0.779-0.36-1.263-1.093-1.423c-0.725-0.17-1.513-0.28-2.356-0.339
			c-0.844-0.051-1.631-0.178-2.356-0.381c-0.729-0.204-1.102-0.721-1.102-1.559v-5.39c0-0.67,0.213-1.186,0.64-1.509
			c0.415-0.347,0.932-0.525,1.551-0.525h20.225c0.61,0,1.101,0.161,1.474,0.475c0.364,0.313,0.542,0.771,0.542,1.382v5.737
			C393.758,912.778,393.605,913.202,393.299,913.481z"/>
		<path d="M424.261,953.879c-0.729,1.61-1.712,2.966-2.953,4.093c-1.237,1.119-2.678,1.983-4.335,2.609
			c-1.653,0.619-3.441,0.916-5.347,0.916c-1.915,0-3.699-0.313-5.352-0.957c-1.657-0.645-3.107-1.552-4.339-2.704
			c-1.237-1.152-2.203-2.517-2.911-4.127c-0.703-1.61-1.051-3.381-1.051-5.339V906.82c0-1.457,0.733-2.195,2.195-2.195h6.229
			c0.564,0,1.042,0.127,1.436,0.39c0.391,0.254,0.585,0.695,0.585,1.305v40.016c0,0.619,0.013,1.305,0.047,2.034
			c0.025,0.72,0.14,1.39,0.335,1.975c0.194,0.584,0.534,1.076,1.008,1.474c0.479,0.398,1.135,0.585,1.979,0.585
			c0.788,0,1.398-0.187,1.822-0.585c0.419-0.398,0.707-0.89,0.881-1.474c0.166-0.585,0.263-1.237,0.292-1.95
			c0.03-0.694,0.043-1.322,0.043-1.889V906.32c0-0.61,0.212-1.051,0.632-1.305c0.423-0.263,0.885-0.39,1.389-0.39h6.488
			c1.351,0,2.017,0.635,2.017,1.856v42.051C425.35,950.506,424.995,952.277,424.261,953.879z"/>
		<path d="M458.549,959.312c0,0.457-0.153,0.788-0.466,1.016c-0.31,0.22-0.661,0.331-1.051,0.331h-8.428
			c-0.22-0.331-0.403-0.838-0.538-1.517c-0.144-0.66-0.263-1.373-0.344-2.093c-0.084-0.737-0.153-1.458-0.207-2.161
			c-0.063-0.704-0.081-1.246-0.081-1.644v-11.449c0-1.008-0.343-2.025-1.013-3.034c-0.686-1.017-1.585-1.517-2.699-1.517
			c-0.619,0-1.199,0.178-1.724,0.551c-0.542,0.356-0.805,0.856-0.805,1.466v19.712c0,0.635-0.195,1.067-0.594,1.314
			c-0.39,0.254-0.864,0.372-1.432,0.372h-6.403c-1.343,0-2.017-0.669-2.017-2.017v-51.982c0-0.627,0.212-1.102,0.631-1.483
			c0.424-0.356,0.941-0.551,1.559-0.551h10.114c5.28,0,9.064,1.39,11.373,4.136c2.292,2.753,3.449,6.686,3.449,11.805
			c0,2.415-0.453,4.652-1.347,6.729c-0.898,2.084-2.36,3.814-4.381,5.228c2.19,1.458,3.691,3.161,4.5,5.102
			c0.823,1.933,1.229,4.17,1.229,6.695v8.602c0,0.72,0.03,1.424,0.085,2.102c0.051,0.67,0.135,1.339,0.25,2.025
			c0.06,0.39,0.135,0.763,0.216,1.127C458.507,958.549,458.549,958.921,458.549,959.312z M447.77,920.6
			c0-0.729-0.059-1.517-0.174-2.39c-0.11-0.856-0.335-1.644-0.67-2.339c-0.343-0.695-0.804-1.288-1.394-1.763
			c-0.589-0.466-1.361-0.704-2.314-0.704c-0.449,0-0.873,0.22-1.267,0.67c-0.394,0.432-0.589,0.881-0.589,1.339v11.059
			c0,0.61,0.22,1.101,0.674,1.466c0.449,0.365,0.953,0.542,1.517,0.542c0.894,0,1.627-0.288,2.182-0.881
			c0.564-0.594,0.988-1.289,1.276-2.085c0.275-0.822,0.475-1.677,0.585-2.559C447.711,922.057,447.77,921.277,447.77,920.6z"/>
		<path d="M486.269,960.15c-0.279,0.339-0.653,0.509-1.093,0.509h-19.885c-0.509,0-0.915-0.246-1.229-0.745
			c-0.3-0.517-0.457-0.992-0.457-1.432V906.82c0-0.61,0.178-1.119,0.547-1.551c0.369-0.415,0.856-0.644,1.474-0.644h18.704
			c0.509,0,0.936,0.161,1.309,0.475c0.364,0.313,0.542,0.712,0.542,1.22v5.983c0,0.449-0.14,0.838-0.42,1.178
			c-0.279,0.339-0.648,0.509-1.097,0.509h-8.259c-0.614,0-1.161,0.237-1.636,0.72c-0.482,0.466-0.72,1.017-0.72,1.644v8.254
			c0,1.559,0.788,2.365,2.356,2.365h7.076c1.132,0,1.695,0.61,1.695,1.847v5.39c0,0.61-0.161,1.11-0.466,1.474
			c-0.309,0.365-0.766,0.551-1.394,0.551h-7.577c-0.563,0-0.987,0.279-1.27,0.839c-0.28,0.559-0.42,1.067-0.42,1.517v10.618
			c0,1.568,0.729,2.347,2.191,2.347h8.766c0.509,0,0.907,0.212,1.22,0.594c0.31,0.39,0.463,0.813,0.463,1.27v5.551
			C486.689,959.43,486.549,959.82,486.269,960.15z"/>
		<path d="M533.863,959.142c0.055,0.466-0.072,0.814-0.373,1.093c-0.313,0.288-0.695,0.423-1.139,0.423h-7.584
			c-0.899,0-1.445-0.457-1.64-1.389c-0.195-0.916-0.326-1.949-0.385-3.068c-0.051-1.127-0.195-2.153-0.424-3.085
			c-0.216-0.916-0.809-1.382-1.763-1.382h-3.373c-1.004,0-1.627,0.466-1.855,1.382c-0.216,0.932-0.352,1.958-0.369,3.085
			c-0.034,1.119-0.144,2.152-0.344,3.068c-0.194,0.932-0.741,1.389-1.644,1.389h-7.246c-0.504,0-0.869-0.169-1.093-0.509
			c-0.224-0.33-0.309-0.72-0.25-1.178v-0.331c0.276-4.61,0.78-9.186,1.513-13.729c0.728-4.559,1.351-9.102,1.855-13.653
			c0.39-3.482,0.843-6.932,1.348-10.355c0.513-3.432,1.123-6.856,1.852-10.289c0-0.169,0.068-0.568,0.212-1.211
			c0.144-0.661,0.318-1.33,0.551-2.034c0.224-0.695,0.449-1.339,0.669-1.898c0.225-0.551,0.419-0.848,0.589-0.848h11.797
			c0.169,0,0.368,0.305,0.588,0.907c0.225,0.585,0.436,1.237,0.636,1.966c0.194,0.728,0.365,1.432,0.509,2.101
			c0.135,0.686,0.233,1.102,0.288,1.263c0.732,3.382,1.364,6.789,1.898,10.212c0.534,3.423,1.026,6.873,1.47,10.348
			c0.623,4.618,1.323,9.186,2.11,13.746c0.784,4.542,1.318,9.144,1.598,13.805V959.142z M521.227,940.354l-2.19-24.602
			l-2.525,24.949v0.161c-0.06,0.619,0.207,1.034,0.797,1.229c0.593,0.194,1.11,0.288,1.564,0.288c0.614,0,1.178-0.128,1.682-0.382
			c0.509-0.246,0.733-0.745,0.673-1.466V940.354z"/>
		<path d="M566.346,960.066c-0.254,0.406-0.695,0.593-1.309,0.593h-6.738c-0.619,0-1.254-0.729-1.898-2.177
			c-0.645-1.458-1.263-3.119-1.856-4.984c-0.585-1.848-1.102-3.635-1.559-5.347c-0.441-1.711-0.754-2.839-0.923-3.415
			c-0.789-2.856-1.572-5.678-2.36-8.458c-0.788-2.78-1.572-5.602-2.356-8.466v31.33c0,0.466-0.144,0.814-0.419,1.093
			c-0.284,0.288-0.653,0.423-1.098,0.423h-7.08c-0.508,0-0.882-0.169-1.136-0.509c-0.254-0.33-0.377-0.72-0.377-1.178v-52.491
			c0-0.492,0.178-0.924,0.547-1.305c0.368-0.356,0.797-0.551,1.304-0.551h6.233c0.394,0,0.814,0.305,1.267,0.907
			c0.45,0.585,0.898,1.348,1.348,2.314c0.453,0.949,0.869,1.992,1.263,3.11s0.758,2.203,1.093,3.237c0.338,1.051,0.64,2,0.885,2.873
			c0.254,0.864,0.441,1.466,0.551,1.814c0.784,2.517,1.585,4.999,2.399,7.407c0.813,2.415,1.644,4.89,2.487,7.415v-27.042
			c0-1.348,0.619-2.034,1.852-2.034h6.487c0.564,0,1,0.229,1.305,0.644c0.313,0.432,0.462,0.882,0.462,1.39v51.982
			C566.718,959.209,566.596,959.684,566.346,960.066z"/>
		<path d="M599.578,948.701c0,3.483-0.818,6.347-2.445,8.593c-1.627,2.237-4.296,3.364-8,3.364h-15.169
			c-0.335,0-0.699-0.187-1.093-0.593c-0.394-0.382-0.589-0.754-0.589-1.093v-52.491c0-0.45,0.225-0.864,0.674-1.255
			c0.449-0.39,0.894-0.601,1.348-0.601h11.462c4.152,0,7.499,1.008,10.02,3.009c2.53,1.983,3.792,5.212,3.792,9.644V948.701z
			 M588.799,916.591c0-0.882-0.352-1.652-1.055-2.262c-0.708-0.619-1.471-0.924-2.322-0.924c-0.666,0-1.258,0.195-1.762,0.585
			c-0.513,0.398-0.763,0.949-0.763,1.686v33.195c0,0.67,0.14,1.373,0.423,2.11c0.279,0.712,0.844,1.093,1.678,1.093
			c1.526,0,2.53-0.526,3.038-1.559c0.504-1.042,0.763-2.212,0.763-3.492V916.591z"/>
		<path d="M648.023,959.142c0.05,0.466-0.072,0.814-0.382,1.093c-0.309,0.288-0.691,0.423-1.139,0.423h-7.581
			c-0.898,0-1.445-0.457-1.648-1.389c-0.191-0.916-0.318-1.949-0.369-3.068c-0.063-1.127-0.203-2.153-0.428-3.085
			c-0.225-0.916-0.81-1.382-1.767-1.382h-3.369c-1.013,0-1.636,0.466-1.852,1.382c-0.228,0.932-0.356,1.958-0.385,3.085
			c-0.025,1.119-0.14,2.152-0.335,3.068c-0.199,0.932-0.745,1.389-1.644,1.389h-7.246c-0.509,0-0.873-0.169-1.089-0.509
			c-0.229-0.33-0.318-0.72-0.259-1.178v-0.331c0.28-4.61,0.789-9.186,1.517-13.729c0.733-4.559,1.352-9.102,1.852-13.653
			c0.394-3.482,0.843-6.932,1.352-10.355c0.504-3.432,1.119-6.856,1.855-10.289c0-0.169,0.069-0.568,0.208-1.211
			c0.14-0.661,0.322-1.33,0.55-2.034c0.22-0.695,0.445-1.339,0.67-1.898c0.22-0.551,0.423-0.848,0.589-0.848h11.796
			c0.17,0,0.364,0.305,0.594,0.907c0.22,0.585,0.428,1.237,0.623,1.966c0.203,0.728,0.372,1.432,0.509,2.101
			c0.144,0.686,0.246,1.102,0.3,1.263c0.725,3.382,1.361,6.789,1.89,10.212c0.534,3.423,1.026,6.873,1.483,10.348
			c0.61,4.618,1.31,9.186,2.102,13.746c0.784,4.542,1.322,9.144,1.602,13.805V959.142z M635.387,940.354l-2.19-24.602l-2.53,24.949
			v0.161c-0.06,0.619,0.207,1.034,0.801,1.229c0.588,0.194,1.106,0.288,1.559,0.288c0.614,0,1.174-0.128,1.683-0.382
			c0.504-0.246,0.729-0.745,0.678-1.466V940.354z"/>
		<path d="M678.688,948.701c0,3.483-0.814,6.347-2.445,8.593c-1.627,2.237-4.296,3.364-8,3.364h-15.169
			c-0.339,0-0.699-0.187-1.093-0.593c-0.39-0.382-0.588-0.754-0.588-1.093v-52.491c0-0.45,0.22-0.864,0.678-1.255
			c0.444-0.39,0.889-0.601,1.343-0.601h11.457c4.157,0,7.495,1.008,10.025,3.009c2.526,1.983,3.793,5.212,3.793,9.644V948.701z
			 M667.904,916.591c0-0.882-0.352-1.652-1.051-2.262c-0.712-0.619-1.479-0.924-2.322-0.924c-0.669,0-1.263,0.195-1.767,0.585
			c-0.509,0.398-0.758,0.949-0.758,1.686v33.195c0,0.67,0.14,1.373,0.423,2.11c0.284,0.712,0.839,1.093,1.678,1.093
			c1.521,0,2.53-0.526,3.034-1.559c0.508-1.042,0.763-2.212,0.763-3.492V916.591z"/>
		<path d="M708.26,920.523c-0.674,4.577-1.322,9.17-1.945,13.763c-0.501,3.5-0.979,6.957-1.428,10.407
			c-0.453,3.457-1.034,6.932-1.762,10.415c-0.063,0.161-0.148,0.542-0.259,1.127c-0.115,0.584-0.272,1.229-0.462,1.898
			c-0.2,0.686-0.411,1.263-0.636,1.78c-0.22,0.5-0.444,0.745-0.669,0.745h-10.953c-0.229,0-0.454-0.262-0.674-0.797
			c-0.224-0.525-0.419-1.119-0.588-1.771c-0.166-0.644-0.31-1.279-0.424-1.889c-0.114-0.627-0.203-1.017-0.25-1.178
			c-0.619-3.491-1.157-6.957-1.601-10.407c-0.454-3.457-0.903-6.949-1.352-10.5c-0.445-3.144-0.844-6.262-1.178-9.338
			c-0.335-3.085-0.645-6.178-0.924-9.272c-0.115-1.067-0.199-2.102-0.259-3.119c-0.055-1.008-0.14-2.017-0.25-3.034
			c-0.055-0.457-0.106-0.898-0.169-1.348c-0.056-0.44-0.076-0.898-0.076-1.347c0-0.509,0.161-0.958,0.495-1.39
			c0.344-0.415,0.788-0.644,1.356-0.644h6.737c0.395,0,0.746,0.416,1.051,1.237c0.31,0.813,0.576,1.864,0.797,3.153
			c0.229,1.296,0.42,2.712,0.598,4.254c0.161,1.551,0.297,3.016,0.372,4.424c0.085,1.414,0.153,2.678,0.217,3.797
			c0.055,1.119,0.109,1.915,0.169,2.347c0.165,2.262,0.331,4.491,0.5,6.712c0.169,2.203,0.364,4.44,0.589,6.695
			c0.115,1.127,0.216,2.288,0.296,3.491c0.085,1.212,0.238,2.373,0.467,3.501c0.279-1.06,0.444-2.221,0.504-3.449
			c0.055-1.246,0.135-2.415,0.25-3.542c0.228-2.255,0.424-4.492,0.588-6.695c0.174-2.221,0.339-4.449,0.509-6.712
			c0.056-1.229,0.141-2.628,0.254-4.204c0.11-1.576,0.25-3.161,0.424-4.762c0.165-1.602,0.39-3.153,0.665-4.67
			c0.284-1.517,0.627-2.847,1.013-3.958c0.119-0.228,0.259-0.542,0.42-0.975c0.174-0.415,0.398-0.644,0.678-0.644h6.491
			c0.564,0,1.021,0.127,1.386,0.39c0.364,0.254,0.517,0.695,0.462,1.305v0.339C709.408,911.32,708.929,915.947,708.26,920.523z"/>
		<path d="M736.146,960.15c-0.28,0.339-0.645,0.509-1.098,0.509h-19.881c-0.509,0-0.911-0.246-1.221-0.745
			c-0.309-0.517-0.457-0.992-0.457-1.432V906.82c0-0.61,0.174-1.119,0.547-1.551c0.365-0.415,0.851-0.644,1.47-0.644h18.703
			c0.504,0,0.941,0.161,1.31,0.475c0.36,0.313,0.542,0.712,0.542,1.22v5.983c0,0.449-0.135,0.838-0.42,1.178
			c-0.279,0.339-0.648,0.509-1.093,0.509h-8.259c-0.614,0-1.165,0.237-1.64,0.72c-0.478,0.466-0.72,1.017-0.72,1.644v8.254
			c0,1.559,0.789,2.365,2.36,2.365h7.076c1.132,0,1.683,0.61,1.683,1.847v5.39c0,0.61-0.157,1.11-0.462,1.474
			c-0.305,0.365-0.771,0.551-1.395,0.551h-7.576c-0.56,0-0.983,0.279-1.267,0.839c-0.284,0.559-0.42,1.067-0.42,1.517v10.618
			c0,1.568,0.729,2.347,2.187,2.347h8.771c0.501,0,0.907,0.212,1.217,0.594c0.313,0.39,0.462,0.813,0.462,1.27v5.551
			C736.565,959.43,736.429,959.82,736.146,960.15z"/>
		<path d="M769.886,960.066c-0.254,0.406-0.691,0.593-1.305,0.593h-6.741c-0.623,0-1.25-0.729-1.894-2.177
			c-0.648-1.458-1.263-3.119-1.851-4.984c-0.598-1.848-1.106-3.635-1.564-5.347c-0.445-1.711-0.758-2.839-0.92-3.415
			c-0.792-2.856-1.572-5.678-2.36-8.458c-0.788-2.78-1.576-5.602-2.359-8.466v31.33c0,0.466-0.144,0.814-0.424,1.093
			c-0.279,0.288-0.644,0.423-1.093,0.423h-7.077c-0.509,0-0.885-0.169-1.139-0.509c-0.254-0.33-0.378-0.72-0.378-1.178v-52.491
			c0-0.492,0.174-0.924,0.547-1.305c0.365-0.356,0.797-0.551,1.305-0.551h6.233c0.39,0,0.813,0.305,1.267,0.907
			c0.441,0.585,0.898,1.348,1.343,2.314c0.449,0.949,0.876,1.992,1.267,3.11c0.394,1.119,0.754,2.203,1.097,3.237
			c0.335,1.051,0.632,2,0.882,2.873c0.25,0.864,0.436,1.466,0.555,1.814c0.78,2.517,1.581,4.999,2.394,7.407
			c0.814,2.415,1.644,4.89,2.487,7.415v-27.042c0-1.348,0.614-2.034,1.856-2.034h6.483c0.563,0,0.995,0.229,1.309,0.644
			c0.305,0.432,0.457,0.882,0.457,1.39v51.982C770.264,959.209,770.141,959.684,769.886,960.066z"/>
		<path d="M798.535,913.481c-0.313,0.288-0.678,0.466-1.101,0.542c-0.424,0.093-0.869,0.119-1.343,0.093
			c-0.475-0.034-0.915-0.042-1.31-0.042c-0.619,0-1.216,0.084-1.809,0.254c-0.594,0.161-0.886,0.644-0.886,1.423v43.22
			c0,0.635-0.233,1.067-0.716,1.314c-0.475,0.254-0.966,0.372-1.474,0.372h-6.233c-0.568,0-1.067-0.178-1.517-0.55
			c-0.453-0.348-0.678-0.857-0.678-1.467v-42.89c0-0.779-0.364-1.263-1.089-1.423c-0.733-0.17-1.517-0.28-2.36-0.339
			c-0.847-0.051-1.631-0.178-2.355-0.381c-0.733-0.204-1.102-0.721-1.102-1.559v-5.39c0-0.67,0.212-1.186,0.636-1.509
			c0.415-0.347,0.936-0.525,1.555-0.525h20.224c0.614,0,1.102,0.161,1.474,0.475c0.357,0.313,0.542,0.771,0.542,1.382v5.737
			C798.992,912.778,798.844,913.202,798.535,913.481z"/>
		<path d="M829.492,953.879c-0.729,1.61-1.712,2.966-2.953,4.093c-1.237,1.119-2.678,1.983-4.339,2.609
			c-1.653,0.619-3.441,0.916-5.348,0.916c-1.911,0-3.694-0.313-5.347-0.957c-1.665-0.645-3.102-1.552-4.343-2.704
			c-1.232-1.152-2.199-2.517-2.902-4.127c-0.708-1.61-1.06-3.381-1.06-5.339V906.82c0-1.457,0.738-2.195,2.195-2.195h6.229
			c0.563,0,1.042,0.127,1.44,0.39c0.394,0.254,0.585,0.695,0.585,1.305v40.016c0,0.619,0.017,1.305,0.043,2.034
			c0.029,0.72,0.14,1.39,0.339,1.975c0.199,0.584,0.534,1.076,1.013,1.474c0.474,0.398,1.131,0.585,1.983,0.585
			c0.779,0,1.389-0.187,1.805-0.585c0.423-0.398,0.716-0.89,0.889-1.474c0.166-0.585,0.259-1.237,0.292-1.95
			c0.03-0.694,0.043-1.322,0.043-1.889V906.32c0-0.61,0.212-1.051,0.627-1.305c0.423-0.263,0.889-0.39,1.394-0.39h6.488
			c1.351,0,2.017,0.635,2.017,1.856v42.051C830.581,950.506,830.221,952.277,829.492,953.879z"/>
		<path d="M863.78,959.312c0,0.457-0.157,0.788-0.466,1.016c-0.31,0.22-0.657,0.331-1.051,0.331h-8.432
			c-0.22-0.331-0.403-0.838-0.542-1.517c-0.14-0.66-0.25-1.373-0.335-2.093c-0.085-0.737-0.157-1.458-0.207-2.161
			c-0.06-0.704-0.085-1.246-0.085-1.644v-11.449c0-1.008-0.339-2.025-1.017-3.034c-0.673-1.017-1.576-1.517-2.695-1.517
			c-0.614,0-1.191,0.178-1.721,0.551c-0.534,0.356-0.813,0.856-0.813,1.466v19.712c0,0.635-0.187,1.067-0.576,1.314
			c-0.398,0.254-0.877,0.372-1.436,0.372h-6.407c-1.343,0-2.018-0.669-2.018-2.017v-51.982c0-0.627,0.208-1.102,0.627-1.483
			c0.423-0.356,0.945-0.551,1.564-0.551h10.11c5.275,0,9.068,1.39,11.378,4.136c2.296,2.753,3.444,6.686,3.444,11.805
			c0,2.415-0.444,4.652-1.347,6.729c-0.895,2.084-2.36,3.814-4.377,5.228c2.19,1.458,3.691,3.161,4.504,5.102
			c0.814,1.933,1.22,4.17,1.22,6.695v8.602c0,0.72,0.034,1.424,0.085,2.102c0.051,0.67,0.14,1.339,0.254,2.025
			c0.059,0.39,0.131,0.763,0.216,1.127C863.738,958.549,863.78,958.921,863.78,959.312z M853.001,920.6
			c0-0.729-0.063-1.517-0.17-2.39c-0.114-0.856-0.343-1.644-0.678-2.339c-0.335-0.695-0.797-1.288-1.389-1.763
			c-0.589-0.466-1.356-0.704-2.314-0.704c-0.454,0-0.873,0.22-1.267,0.67c-0.394,0.432-0.594,0.881-0.594,1.339v11.059
			c0,0.61,0.225,1.101,0.678,1.466c0.445,0.365,0.949,0.542,1.513,0.542c0.903,0,1.627-0.288,2.191-0.881
			c0.563-0.594,0.988-1.289,1.271-2.085c0.279-0.822,0.475-1.677,0.588-2.559C852.937,922.057,853.001,921.277,853.001,920.6z"/>
		<path d="M891.496,960.15c-0.275,0.339-0.648,0.509-1.093,0.509h-19.885c-0.5,0-0.915-0.246-1.22-0.745
			c-0.305-0.517-0.462-0.992-0.462-1.432V906.82c0-0.61,0.182-1.119,0.547-1.551c0.364-0.415,0.851-0.644,1.474-0.644h18.703
			c0.504,0,0.941,0.161,1.305,0.475c0.364,0.313,0.546,0.712,0.546,1.22v5.983c0,0.449-0.14,0.838-0.423,1.178
			c-0.275,0.339-0.648,0.509-1.089,0.509h-8.262c-0.614,0-1.157,0.237-1.636,0.72c-0.483,0.466-0.72,1.017-0.72,1.644v8.254
			c0,1.559,0.788,2.365,2.356,2.365h7.076c1.127,0,1.69,0.61,1.69,1.847v5.39c0,0.61-0.156,1.11-0.466,1.474
			c-0.309,0.365-0.767,0.551-1.389,0.551h-7.577c-0.563,0-0.988,0.279-1.271,0.839c-0.275,0.559-0.419,1.067-0.419,1.517v10.618
			c0,1.568,0.729,2.347,2.19,2.347h8.763c0.509,0,0.911,0.212,1.224,0.594c0.31,0.39,0.457,0.813,0.457,1.27v5.551
			C891.915,959.43,891.775,959.82,891.496,960.15z"/>
	</g>
</g>
</svg>
