<?xml version="1.0" encoding="utf-8"?>
<!-- Generator: Adobe Illustrator 23.0.3, SVG Export Plug-In . SVG Version: 6.00 Build 0)  -->
<svg version="1.1" id="Layer_1" xmlns="http://www.w3.org/2000/svg" xmlns:xlink="http://www.w3.org/1999/xlink" x="0px" y="0px"
	 viewBox="0 0 1200 1200" enable-background="new 0 0 1200 1200" xml:space="preserve">
<g>
	<path d="M933.651,572.168c-0.581-63.767-1.761-127.55-4.259-191.273c-2.196-56.023-11.925-106.995-37.396-157.323
		c-29.97-59.219-67.609-116.522-104.676-171.513c-2.112-3.133-6.072-2.334-7.665,0.024c-0.059-0.008-0.106-0.037-0.167-0.041
		c-37.79-2.103-77.419,4.732-115.209,7.063c-39.671,2.447-79.38,4.271-119.112,5.368c-78.285,2.16-156.406,0.901-234.623-2.717
		c-3.976-0.184-5.042,4.151-3.292,6.72c-4.243,111.884-1.401,224.325-1.888,336.283c-0.491,112.909-1.229,225.816-2.212,338.722
		c-0.562,64.517-1.56,129.033-1.983,193.55c-0.002,0.23,0.035,0.435,0.06,0.648c-0.113,2.313,1.327,4.792,4.318,4.972
		c78.969,4.755,158.131,7.472,237.258,9.52c-6.252,13.835-24.744,42.866-71.432,49.096c-1.378-8.386-5.864-16.455-12.466-21.904
		c-5.974-4.929-12.695-6.98-18.909-5.773c-1.444,0.279-2.749,0.833-3.994,1.503c-7.404-9.574-21.864-13.221-34.179-13.292
		c-8.318-0.077-18.118,1.536-25.016,5.703c-4.954-1.919-12.824-3.507-18.198-1.549c-3.518,1.283-5.002,3.635-5.626,5.383
		c-1.245,3.489-5.464,32.943-14.559,101.667c-0.772,5.833-1.289,9.747-1.425,10.693c-0.947,6.63,11.928,21.809,13.401,23.518
		c10.18,11.824,38.253,39.354,78.955,39.641c1.1,0.008,2.185,0.011,3.265,0.011c42.654,0,70.545-6.044,85.193-18.448
		c5.294-4.482,4.696-13.305,1.108-18.91c-0.992-1.549-2.099-2.611-3.236-3.364c1.142-13.433-4.12-31.015-14.132-46.349
		c-6.797-10.411-14.749-18.118-23.074-22.666c38.37-6.061,63.91-24.95,79.344-41.285c17.077-18.076,25.274-36.525,27.688-42.626
		c9.948,0.233,19.896,0.464,29.841,0.686c10.673,0.238,21.349,0.401,32.023,0.61c0.286,1.206,0.974,2.302,2.074,2.996
		c19.496,12.282,43.725,33.535,57.55,67.772c-6.046,2.941-12.584,7.056-16.815,13.423c-6.78,10.198-5.139,24.453,3.659,31.777
		c0.556,0.463,1.192,0.814,1.79,1.219c-2.301,7.906-1.226,20.563-1.06,22.318c0.744,7.874,2.93,20.782,9.337,29.169
		c-0.878,9.44,6.589,20.224,16.853,23.796c4.765,1.657,19.913,3.014,37.734,3.014c22.341,0,48.88-2.134,64.428-8.484
		c27.355-11.173,67.584-70.636,71.953-82.908c0.512-1.441,0.985-3.25,0.451-5.048c-1.196-6.088-6.947-14.584-13.55-17.065
		c-0.677-1.522-1.62-2.943-2.885-4.141c-9.417-8.918-28.003-23.877-46.658-23.877c-0.125,0-0.247,0.005-0.372,0.014
		c-24.106,1.854-36.772,13.346-43.447,27.02c-3.25-2.427-7.191-4.055-11.202-4.564c0.301-1.599,0.484-3.3,0.435-5.197
		c-0.188-7.324-3.57-14.225-9.279-18.934c-8.369-6.903-19.698-7.956-29.56-2.754c-0.024,0.013-0.048,0.03-0.072,0.042
		c-9.736-24.964-19.908-36.957-35.083-48.592c21.612,0.32,43.224,0.613,64.838,0.816c51.766,0.485,104.698,3.551,156.353,0.04
		c0.032-0.002,0.052-0.018,0.083-0.021c2.492,0.596,5.538-0.772,5.641-4.124C934.464,825.663,934.805,698.777,933.651,572.168z
		 M869.492,203.93c7.27,12.808,14.162,25.869,20.315,39.257c-9.791-13.854-20.946-26.702-31.954-38.234
		c-16.281-17.058-33.952-32.721-51.628-48.303c-17.397-15.336-34.58-31.989-53.554-45.436c8.125-4.731,14.434-14.359,19.202-21.768
		c4.701-7.306,9.815-16.766,11.74-26.051C811.258,110.825,842.388,156.182,869.492,203.93z M441.839,983.1
		c3.292-0.634,7.256,0.728,10.902,3.736c4.659,3.843,7.868,9.461,8.979,15.33c-2.912,0.176-5.885,0.298-8.995,0.298l-1.116-0.003
		c-0.008,0-0.014,0-0.021,0c-0.902,0-1.784,0.252-2.551,0.727c-3.383,2.097-5.282,7.122-5.643,14.938
		c-0.079,1.723-0.235,8.055,1.234,13.371c-3.66,0.288-7.271,0.824-10.856,1.688C429.537,1002.715,435.587,984.31,441.839,983.1z
		 M511.556,1121.031c-12.994,11.003-40.707,16.435-82.13,16.142c-49.139-0.347-80.624-45.351-82.757-52.683
		c0.208-1.528,0.689-5.156,1.359-10.213c3.027-22.869,12.108-91.489,13.97-99.267c1.259-0.492,4.361-0.317,7.396,0.321
		c-0.023,0.051-0.056,0.097-0.079,0.149c-11.829,22.5-15.863,104.975-16.03,108.485c-0.058,1.258,0.375,2.491,1.209,3.437
		c28.93,32.726,64.223,42.766,94.646,42.764c27.183,0,50.471-8.015,61.853-15.023c0.489,0.922,0.98,2.329,1.01,3.864
		C512.027,1120.194,511.748,1120.867,511.556,1121.031z M493.443,1065.093c9.198,14.087,14.046,30.549,12.439,41.795
		c-15.953,9.361-88.678,35.086-142.824-24.443c1.275-24.827,6.108-86.181,14.894-102.579c0.071-0.134,0.136-0.27,0.194-0.408
		c1.673-3.976,11.068-8.079,23.622-7.97c9.924,0.058,22.498,2.92,27.331,10.601c-6.939,11.722-7.697,33.412-4.681,54.034
		c-10.753,4.156-21.633,11.048-33.653,21c-2.06,1.706-2.347,4.758-0.642,6.818c1.703,2.06,4.756,2.349,6.818,0.642
		c25.342-20.977,44.009-26.945,68.874-22.03C475.236,1044.415,485.308,1052.631,493.443,1065.093z M819.263,1132.549
		c-26.097,10.664-87.365,8.052-95.318,5.289c-3.421-1.19-6.22-3.631-8.055-6.344c9.298,3.416,22.272,4.604,35.628,4.604
		c25.178,0,51.507-4.097,56.14-4.852c0.304-0.049,0.602-0.128,0.891-0.233c24.447-8.981,58.79-60.568,72.421-82.33
		c0.181-0.288,0.301-0.597,0.457-0.895c1.9,2.022,3.868,4.995,4.375,7.495C883.039,1064.476,843.417,1122.684,819.263,1132.549z
		 M774.607,1040.446c3.706,0,7.735,1.97,10.087,4.762c-3.664,12.465-3.721,25.288-3.75,33.526c-0.005,1.611-0.011,3.09-0.038,4.406
		c-0.057,2.674,2.063,4.887,4.739,4.944c2.626,0.052,4.887-2.065,4.944-4.739c0.03-1.367,0.035-2.904,0.041-4.578
		c0.069-20.031,0.2-57.292,41.788-60.606c15.821,0.112,33.103,14.868,39.818,21.226c1.138,1.077,1.359,2.823,0.526,4.152
		c-20.904,33.374-49.431,71.294-67.14,78.223c-20.439,3.284-75.227,9.19-91.11-1.606c-10.494-7.136-11.98-35.922-9.925-44.791
		c1.806,0.347,3.667,0.581,5.631,0.581c2.755,0,5.651-0.344,8.639-1.04c4.822-1.124,16.99-4.428,25.84-10.819l0.385-0.277
		c8.107-5.855,16.492-11.91,23.904-19.046c0.85-0.819,1.675-1.686,2.475-2.585C773.025,1040.474,773.085,1040.446,774.607,1040.446z
		 M743.329,1012.631c6.449-3.394,13.503-2.776,18.882,1.658c3.544,2.923,5.643,7.191,5.758,11.711
		c0.103,4.01-1.113,6.694-3.434,9.404c-0.105,0.114-0.214,0.229-0.317,0.341c-0.407,0.445-0.847,0.927-1.36,1.441
		c-0.008,0.008-0.011,0.02-0.019,0.029c-0.193,0.192-0.37,0.379-0.572,0.574c-6.919,6.662-15.021,12.513-22.856,18.171l-0.386,0.279
		c-5.152,3.72-13.513,7.172-22.367,9.236c-3.996,0.928-11.465,1.854-16.617-2.434c-5.546-4.617-5.404-13.536-1.789-18.972
		c2.826-4.254,7.5-7.325,12.076-9.639c1.252,3.838,2.422,7.77,3.396,11.909c0.52,2.212,2.494,3.733,4.709,3.733
		c0.219,0,0.441-0.014,0.664-0.046c9.386-1.288,17.274-5.328,23.45-12.012c3.049-3.304,3.944-7.953,4.092-8.851
		c0.12-0.728,0.073-1.475-0.14-2.182c-1.472-4.903-2.925-9.422-4.377-13.635C742.525,1013.104,742.93,1012.841,743.329,1012.631z
		 M771.687,946.952c-52.116-0.54-104.229-1.42-156.333-2.629c-101.614-2.358-203.108-7.229-304.683-10.503
		c3.397-224.701,3.743-449.507,4.183-674.229c0.123-62.986,1.355-126.144-0.949-189.1c77.966,4.727,156.357,4.732,234.402,2.346
		c38.685-1.183,77.348-3.055,115.973-5.515c37.253-2.373,77.681-1.969,114.175-10.453c-4.586,8.698-7.419,18.442-12.627,26.953
		c-5.77,9.429-15.924,17.131-20.297,27.071c-0.463,1.053,0.06,2.305,1.086,2.563c0.061,0.087,0.086,0.186,0.159,0.269
		c28.97,32.661,66.339,58.142,97.252,89.075c31.705,31.726,52.31,65.15,67.698,106.676c4.012,20.509,5.891,41.385,6.954,62.342
		c6.234,122.94,5.92,246.359,5.046,369.417c-0.489,68.86-2.036,137.723-1.989,206.584
		C872.032,944.945,821.472,947.468,771.687,946.952z M764.468,361.82c-12.857-4.159-26.157-2.731-37.735,3.872
		c-19.46,9.022-32.344,40.644-30.487,78.644c1.149,23.533,9.035,47.203,20.244,62.094c-5.864,1.371-9.493,2.585-9.958,2.744
		c-2.53,0.865-3.876,3.616-3.012,6.146c0.687,2.011,2.569,3.277,4.584,3.277c0.517,0,1.045-0.084,1.562-0.26
		c0.356-0.12,36.049-12.037,71.953-3.039c2.593,0.651,5.224-0.925,5.875-3.52c0.649-2.595-0.925-5.224-3.52-5.875
		c-4.3-1.078-8.576-1.869-12.79-2.448c10.044-15.25,15.397-38.642,14.183-63.474c-1.006-20.602-6.291-39.835-14.883-54.155
		c-4.072-6.789-8.697-12.15-13.671-15.965c1.562,0.301,3.123,0.672,4.675,1.174c10.237,3.31,18.464,10.562,22.008,19.396
		c0.758,1.89,2.576,3.041,4.496,3.041c0.601,0,1.211-0.112,1.802-0.35c2.481-0.995,3.687-3.815,2.691-6.298
		C787.884,375.354,777.41,366.006,764.468,361.82z M762.181,390.809c7.784,12.977,12.584,30.609,13.514,49.647
		c1.247,25.529-4.793,49.039-15.793,61.943c-0.761-0.039-1.515-0.068-2.268-0.094c8.549-12.106,12.764-31.117,11.317-51.558
		c-0.189-2.67-2.521-4.715-5.172-4.488l-19.695,1.394l17.556-22.09c1.08-1.357,1.349-3.189,0.709-4.8
		c-7.647-19.248-20.086-30.196-33.279-29.25c-6.625,0.468-12.674,3.846-17.729,9.648c4.125-12.141,10.271-21.387,17.56-25.7
		c0.363-0.122,0.72-0.273,1.059-0.488c0.351-0.222,0.719-0.392,1.074-0.601c2.057-0.919,4.189-1.47,6.386-1.578
		C746.192,372.422,754.956,378.767,762.181,390.809z M530.027,384.027c-13.131-3.41-26.348-1.211-37.528,6.052
		c-8.033,4.294-14.808,12.672-19.591,24.514c-6.255,15.483-8.479,35.305-6.265,55.812c0.303,2.809,0.701,5.578,1.159,8.317
		c0.001,0.006,0.001,0.011,0.001,0.017c0.013,0.138,0.054,0.264,0.077,0.398c2.908,17.096,8.741,32.65,16.802,44.457
		c1.828,2.677,3.752,5.036,5.721,7.217c0.076,0.079,0.107,0.183,0.19,0.258c0.05,0.045,0.103,0.083,0.153,0.128
		c7.911,8.613,16.814,13.248,25.859,13.248c0.963,0,1.928-0.052,2.893-0.156c12.422-1.341,22.932-11.162,29.594-27.655
		c6.255-15.483,8.479-35.305,6.263-55.813c-2.215-20.507-8.621-39.397-18.039-53.187c-4.477-6.557-9.417-11.638-14.619-15.148
		c1.63,0.21,3.262,0.493,4.894,0.917c10.444,2.711,19.095,9.458,23.141,18.048c0.826,1.753,2.566,2.781,4.384,2.781
		c0.692,0,1.394-0.15,2.06-0.463c2.42-1.14,3.457-4.025,2.317-6.444C554.237,396.16,543.221,387.452,530.027,384.027z
		 M529.319,413.095c8.535,12.498,14.361,29.816,16.409,48.765c2.048,18.951,0.054,37.114-5.615,51.146
		c-4.627,11.455-11.134,18.773-18.556,21.011c13.363-9.294,20.575-33.34,16.979-60.962c-0.345-2.651-2.762-4.537-5.427-4.176
		l-19.025,2.477l5.376-7.648l10.493-12.717c0.838-1.016,1.068-2.397,0.619-3.631c0.305-1.096,0.251-2.277-0.245-3.339
		c-8.623-18.463-21.489-28.507-34.395-26.797c-6.764,0.88-12.678,5-17.358,11.368c0.913-3.644,2.004-7.129,3.314-10.372
		c3.616-8.95,8.396-15.307,13.845-18.76c0.164-0.091,0.333-0.169,0.489-0.282c0.357-0.256,0.735-0.46,1.098-0.702
		c1.999-1.029,4.078-1.678,6.221-1.91c0.604-0.065,1.211-0.098,1.819-0.098C513.508,396.469,521.949,402.302,529.319,413.095z
		 M643.156,583.717c0.186,0,0.375-0.002,0.564-0.006c7.266-0.159,12.855-2.508,16.61-6.982c4.36-5.193,5.875-13.093,4.382-22.847
		c-0.769-5.014-2.273-9.723-3.728-14.276c-0.536-1.674-1.07-3.348-1.567-5.033c-0.76-2.585-0.738-5.525-0.714-8.64
		c0.032-4.007,0.063-8.151-1.491-12.313c-0.383-1.028-0.884-2-1.491-2.893c-3.055-4.486-7.478-7.308-12.455-7.947
		c-5.352-0.69-10.89,1.163-15.542,5.223c-8.257,7.201-8.869,18.82-9.315,27.305l-0.061,1.173
		c-0.599,10.927-0.129,30.782,9.729,40.969C632.105,581.611,637.173,583.717,643.156,583.717z M652.914,570.502
		c-1.911,2.275-4.988,3.429-9.406,3.526c-3.473,0.038-6.238-1.009-8.47-3.314c-4.529-4.681-6.264-13.331-6.867-20.91
		c5.228-1.603,17.683-3.851,27.11,6.63C655.882,561.12,655.862,566.991,652.914,570.502z M665.616,597.925
		c1.447,2.25,0.794,5.246-1.455,6.692c-6.875,4.42-16.472,5.475-24.065,5.475c-6.629,0-11.73-0.802-12.173-0.875
		c-2.637-0.429-4.428-2.913-4.001-5.552c0.424-2.639,2.901-4.428,5.55-4.009c5.453,0.878,21.368,2.011,29.452-3.186
		C661.172,595.026,664.169,595.675,665.616,597.925z M573.737,353.44c1.818,1.963,1.699,5.027-0.262,6.845
		c-1.963,1.814-5.016,1.698-6.835-0.252c-1.264-1.349-31.528-32.841-82.943-14.897c-32.392,11.3-42.078,43.217-42.173,43.538
		c-0.618,2.111-2.551,3.482-4.646,3.482c-0.451,0-0.908-0.063-1.364-0.197c-2.566-0.752-4.037-3.441-3.285-6.009
		c0.441-1.505,11.232-37.036,48.277-49.96C538.082,315.903,572.307,351.895,573.737,353.44z M727.719,312.565
		c-38.037,2.746-46.054,33.921-46.13,34.234c-0.539,2.215-2.521,3.7-4.702,3.7c-0.378,0-0.763-0.046-1.148-0.139
		c-2.599-0.632-4.193-3.252-3.561-5.85c0.093-0.383,9.844-38.358,54.844-41.606c40.196-2.907,60.765,19.17,61.619,20.113
		c1.799,1.978,1.65,5.041-0.329,6.84c-1.972,1.792-5.024,1.654-6.827-0.315C780.749,328.745,763.057,310.028,727.719,312.565z
		 M203.116,289.006c-1.045,0-2.093-0.337-2.971-1.02c-5.117-3.98-50.017-39.678-50.726-67.102
		c-0.183-7.059,2.447-12.993,7.817-17.633c8.617-7.452,17.126-10.149,25.312-8.011c8.76,2.289,14.894,9.775,18.587,15.893
		c3.998-5.881,10.48-13.087,19.319-15.504c7.789-2.127,15.751-0.257,23.696,5.56c4.806,3.518,7.551,8.588,7.94,14.66
		c1.669,26.084-40.789,67.22-45.636,71.825C205.523,288.558,204.322,289.006,203.116,289.006z M177.153,204.234
		c-4.149,0-8.703,2.125-13.584,6.343c-3.156,2.729-4.576,5.924-4.469,10.056c0.463,17.911,29.162,45.119,43.702,57.073
		c13.733-13.692,40.707-44.307,39.621-61.241c-0.208-3.247-1.477-5.618-3.996-7.461c-5.519-4.04-10.555-5.364-15.419-4.034
		c-9.135,2.499-15.884,14.123-17.712,18.392c-0.783,1.829-2.62,3.036-4.592,2.934c-1.985-0.058-3.733-1.321-4.411-3.187
		c-1.606-4.393-7.649-16.282-16.215-18.504C179.128,204.358,178.152,204.234,177.153,204.234z M1048.091,408.3
		c-1.045,0-2.093-0.337-2.971-1.02c-5.117-3.98-50.016-39.678-50.727-67.102c-0.183-7.061,2.448-12.993,7.817-17.635
		c8.618-7.453,17.127-10.157,25.314-8.01c8.758,2.289,14.894,9.774,18.587,15.893c3.996-5.881,10.478-13.089,19.317-15.505
		c7.78-2.127,15.751-0.254,23.696,5.56c4.806,3.52,7.552,8.59,7.94,14.662c1.669,26.086-40.789,67.22-45.636,71.825
		C1050.498,407.852,1049.297,408.3,1048.091,408.3z M1022.128,323.528c-4.149,0-8.703,2.123-13.584,6.342
		c-3.156,2.727-4.575,5.922-4.469,10.054c0.46,17.89,29.162,45.113,43.704,57.075c13.734-13.692,40.705-44.304,39.621-61.239
		c-0.21-3.247-1.479-5.62-3.998-7.463c-5.521-4.042-10.567-5.361-15.419-4.034c-9.134,2.499-15.882,14.124-17.711,18.393
		c-0.783,1.829-2.637,3.036-4.592,2.934c-1.985-0.058-3.733-1.321-4.411-3.187c-1.606-4.393-7.65-16.282-16.216-18.504
		C1024.103,323.651,1023.128,323.528,1022.128,323.528z M144.761,467.987c-1.045,0-2.093-0.337-2.971-1.02
		c-3.924-3.052-38.344-30.426-38.896-51.75c-0.147-5.637,2.043-10.574,6.329-14.28c6.843-5.915,13.656-8.046,20.246-6.318
		c6.359,1.662,10.915,6.572,13.875,11.049c3.187-4.291,7.956-9.031,14.247-10.751c6.247-1.718,12.633-0.232,18.959,4.398
		c3.932,2.88,6.178,7.023,6.495,11.984c1.299,20.301-31.233,51.828-34.947,55.356C147.169,467.539,145.967,467.987,144.761,467.987z
		 M125.087,403.743c-2.856,0-6.052,1.515-9.529,4.521c-2.106,1.819-3.053,3.95-2.981,6.703c0.331,12.83,20.774,32.455,31.878,41.705
		c12.652-12.707,29.633-33.758,28.927-44.757c-0.136-2.117-0.924-3.593-2.552-4.784c-3.867-2.833-7.359-3.775-10.66-2.878
		c-6.427,1.742-11.334,10.182-12.682,13.287c-0.791,1.821-2.663,2.945-4.597,2.916c-1.98-0.061-3.725-1.319-4.401-3.18
		c-1.165-3.175-5.497-11.742-11.486-13.292C126.382,403.823,125.744,403.743,125.087,403.743z M973.317,196.961
		c-1.045,0-2.093-0.337-2.971-1.02c-3.077-2.395-30.082-23.877-30.524-40.884c-0.121-4.701,1.704-8.818,5.278-11.908
		c6.953-6.012,12.901-6.104,16.661-5.12c4.633,1.211,8.085,4.49,10.486,7.746c2.536-3.11,6.097-6.252,10.71-7.513
		c3.563-0.976,9.159-1.141,15.608,3.577c3.314,2.426,5.205,5.915,5.473,10.087c1.036,16.208-24.472,40.936-27.383,43.702
		C975.724,196.513,974.523,196.961,973.317,196.961z M958.088,147.244c-1.936,0-4.168,1.083-6.654,3.232
		c-1.381,1.193-1.975,2.529-1.929,4.332c0.219,8.451,13.407,22.322,23.501,30.821c9.561-9.734,21.879-25.12,21.366-33.085
		c-0.085-1.319-0.528-2.156-1.529-2.89c-2.711-1.985-5.109-2.661-7.33-2.049c-4.57,1.25-8.174,7.538-9.075,9.643
		c-0.782,1.829-2.595,3.006-4.592,2.934c-1.985-0.058-3.731-1.319-4.411-3.184c-0.794-2.155-3.991-8.533-8.137-9.602
		C958.907,147.295,958.504,147.244,958.088,147.244z"/>
	<path fill="#EFEFEF" d="M310.671,933.82c101.575,3.273,203.069,8.145,304.683,10.503c52.105,1.209,104.217,2.089,156.333,2.629
		c49.786,0.516,100.345-2.006,150.049,0.866c-0.047-68.861,1.5-137.724,1.989-206.584c0.873-123.058,1.187-246.478-5.046-369.417
		c-1.063-20.958-2.942-41.833-6.954-62.342c-15.388-41.526-35.992-74.95-67.698-106.676c-30.912-30.933-68.282-56.414-97.252-89.075
		c-0.074-0.083-0.098-0.181-0.159-0.269c-1.027-0.258-1.549-1.51-1.086-2.563c4.373-9.94,14.527-17.643,20.297-27.071
		c5.209-8.511,8.041-18.255,12.627-26.953c-36.494,8.485-76.922,8.08-114.175,10.453c-38.625,2.461-77.288,4.333-115.973,5.515
		c-78.045,2.386-156.435,2.381-234.402-2.346c2.304,62.956,1.072,126.114,0.949,189.1
		C314.414,484.313,314.068,709.119,310.671,933.82z M789.794,393.123c-0.591,0.238-1.201,0.35-1.802,0.35
		c-1.92,0-3.738-1.151-4.496-3.041c-3.544-8.834-11.771-16.085-22.008-19.396c-1.552-0.501-3.113-0.873-4.675-1.174
		c4.975,3.814,9.599,9.176,13.671,15.965c8.591,14.32,13.877,33.553,14.883,54.155c1.214,24.832-4.14,48.224-14.183,63.474
		c4.214,0.579,8.489,1.37,12.79,2.448c2.595,0.651,4.17,3.28,3.52,5.875c-0.651,2.595-3.282,4.171-5.875,3.52
		c-35.904-8.998-71.596,2.919-71.953,3.039c-0.517,0.177-1.045,0.26-1.562,0.26c-2.015,0-3.897-1.266-4.584-3.277
		c-0.864-2.53,0.482-5.281,3.012-6.146c0.464-0.159,4.093-1.374,9.958-2.744c-11.209-14.891-19.095-38.561-20.244-62.094
		c-1.857-38,11.027-69.622,30.487-78.644c11.577-6.603,24.877-8.031,37.735-3.872c12.942,4.185,23.416,13.533,28.017,25.005
		C793.481,389.308,792.276,392.128,789.794,393.123z M672.179,344.51c0.093-0.383,9.844-38.358,54.844-41.606
		c40.196-2.907,60.765,19.17,61.619,20.113c1.799,1.978,1.65,5.041-0.329,6.84c-1.972,1.792-5.024,1.654-6.827-0.315
		c-0.736-0.798-18.428-19.514-53.766-16.978c-38.037,2.746-46.054,33.921-46.13,34.234c-0.539,2.215-2.521,3.7-4.702,3.7
		c-0.378,0-0.763-0.046-1.148-0.139C673.14,349.728,671.547,347.108,672.179,344.51z M664.161,604.617
		c-6.875,4.42-16.472,5.475-24.065,5.475c-6.629,0-11.73-0.802-12.173-0.875c-2.637-0.429-4.428-2.913-4.001-5.552
		c0.424-2.639,2.901-4.428,5.55-4.009c5.453,0.878,21.368,2.011,29.452-3.186c2.248-1.444,5.245-0.794,6.692,1.455
		C667.063,600.174,666.411,603.171,664.161,604.617z M618.348,536.481l0.061-1.173c0.446-8.484,1.058-20.104,9.315-27.305
		c4.652-4.059,10.19-5.913,15.542-5.223c4.977,0.638,9.4,3.46,12.455,7.947c0.607,0.892,1.108,1.865,1.491,2.893
		c1.554,4.162,1.523,8.306,1.491,12.313c-0.024,3.115-0.046,6.055,0.714,8.64c0.497,1.685,1.031,3.359,1.567,5.033
		c1.455,4.553,2.959,9.261,3.728,14.276c1.493,9.753-0.022,17.654-4.382,22.847c-3.755,4.474-9.345,6.823-16.61,6.982
		c-0.189,0.005-0.378,0.006-0.564,0.006c-5.982,0-11.05-2.106-15.078-6.268C618.219,567.263,617.749,547.408,618.348,536.481z
		 M557.178,413.767c-0.667,0.314-1.368,0.463-2.06,0.463c-1.818,0-3.558-1.028-4.384-2.781c-4.047-8.59-12.698-15.337-23.141-18.048
		c-1.632-0.424-3.265-0.706-4.894-0.917c5.202,3.51,10.142,8.592,14.619,15.148c9.417,13.79,15.824,32.68,18.039,53.187
		c2.216,20.509-0.008,40.33-6.263,55.813c-6.662,16.492-17.172,26.313-29.594,27.655c-0.965,0.104-1.929,0.156-2.893,0.156
		c-9.045,0-17.948-4.635-25.859-13.248c-0.05-0.045-0.103-0.082-0.153-0.128c-0.083-0.075-0.114-0.179-0.19-0.258
		c-1.969-2.181-3.893-4.54-5.721-7.217c-8.062-11.807-13.894-27.361-16.802-44.457c-0.024-0.134-0.065-0.26-0.077-0.398
		c-0.001-0.006-0.001-0.011-0.001-0.017c-0.458-2.739-0.856-5.508-1.159-8.317c-2.215-20.507,0.009-40.329,6.265-55.812
		c4.783-11.841,11.557-20.22,19.591-24.514c11.18-7.264,24.397-9.462,37.528-6.052c13.194,3.425,24.21,12.133,29.469,23.296
		C560.635,409.742,559.598,412.627,557.178,413.767z M432.229,385.95c0.441-1.505,11.232-37.036,48.277-49.96
		c57.576-20.086,91.801,15.906,93.231,17.451c1.818,1.963,1.699,5.027-0.262,6.845c-1.963,1.814-5.016,1.698-6.835-0.252
		c-1.264-1.349-31.528-32.841-82.943-14.897c-32.392,11.3-42.078,43.217-42.173,43.538c-0.618,2.111-2.551,3.482-4.646,3.482
		c-0.451,0-0.908-0.063-1.364-0.197C432.948,391.207,431.477,388.518,432.229,385.95z"/>
	<path fill="#FFFFFF" d="M762.181,390.809c7.784,12.977,12.584,30.609,13.514,49.647c1.247,25.529-4.793,49.039-15.793,61.943
		c-0.761-0.039-1.515-0.068-2.268-0.094c8.549-12.106,12.764-31.117,11.317-51.558c-0.189-2.67-2.521-4.715-5.172-4.488
		l-19.695,1.394l17.556-22.09c1.08-1.357,1.349-3.189,0.709-4.8c-7.647-19.248-20.086-30.196-33.279-29.25
		c-6.625,0.468-12.674,3.846-17.729,9.648c4.125-12.141,10.271-21.387,17.56-25.7c0.363-0.122,0.72-0.273,1.059-0.488
		c0.351-0.222,0.719-0.392,1.074-0.601c2.057-0.919,4.189-1.47,6.386-1.578C746.192,372.422,754.956,378.767,762.181,390.809z
		 M503.54,396.567c-2.143,0.231-4.222,0.881-6.221,1.91c-0.363,0.243-0.741,0.446-1.098,0.702c-0.156,0.112-0.325,0.191-0.489,0.282
		c-5.45,3.452-10.229,9.809-13.845,18.76c-1.31,3.243-2.401,6.728-3.314,10.372c4.68-6.368,10.594-10.489,17.358-11.368
		c12.906-1.71,25.772,8.334,34.395,26.797c0.497,1.063,0.55,2.243,0.245,3.339c0.449,1.234,0.219,2.615-0.619,3.631l-10.493,12.717
		l-5.376,7.648l19.025-2.477c2.666-0.361,5.082,1.524,5.427,4.176c3.596,27.621-3.616,51.668-16.979,60.962
		c7.422-2.239,13.929-9.556,18.556-21.011c5.669-14.031,7.663-32.194,5.615-51.146c-2.048-18.95-7.874-36.268-16.409-48.765
		c-7.37-10.793-15.811-16.626-23.959-16.626C504.751,396.469,504.144,396.502,503.54,396.567z"/>
	<path fill="#C1272D" d="M1087.4,335.76c1.085,16.935-25.887,47.547-39.621,61.239c-14.542-11.962-43.243-39.184-43.704-57.075
		c-0.106-4.132,1.313-7.327,4.469-10.054c4.88-4.218,9.435-6.342,13.584-6.342c0.999,0,1.975,0.123,2.926,0.37
		c8.566,2.221,14.61,14.11,16.216,18.504c0.678,1.866,2.426,3.129,4.411,3.187c1.955,0.102,3.809-1.105,4.592-2.934
		c1.829-4.269,8.577-15.895,17.711-18.393c4.852-1.327,9.898-0.008,15.419,4.034C1085.921,330.14,1087.19,332.512,1087.4,335.76z
		 M985.512,147.605c-4.57,1.25-8.174,7.538-9.075,9.643c-0.782,1.829-2.595,3.006-4.592,2.934c-1.985-0.058-3.731-1.319-4.411-3.184
		c-0.794-2.155-3.991-8.533-8.137-9.602c-0.389-0.101-0.793-0.151-1.209-0.151c-1.936,0-4.168,1.083-6.654,3.232
		c-1.381,1.193-1.975,2.529-1.929,4.332c0.219,8.451,13.407,22.322,23.501,30.821c9.561-9.734,21.879-25.12,21.366-33.085
		c-0.085-1.319-0.528-2.156-1.529-2.89C990.131,147.67,987.733,146.994,985.512,147.605z M643.507,574.029
		c4.419-0.098,7.496-1.252,9.406-3.526c2.948-3.512,2.969-9.383,2.367-14.067c-9.427-10.48-21.882-8.233-27.11-6.63
		c0.603,7.579,2.338,16.229,6.867,20.91C637.27,573.02,640.035,574.066,643.507,574.029z M238.427,209.004
		c-5.519-4.04-10.555-5.364-15.419-4.034c-9.135,2.499-15.884,14.123-17.712,18.392c-0.783,1.829-2.62,3.036-4.592,2.934
		c-1.985-0.058-3.733-1.321-4.411-3.187c-1.606-4.393-7.649-16.282-16.215-18.504c-0.951-0.246-1.926-0.37-2.926-0.37
		c-4.149,0-8.703,2.125-13.584,6.343c-3.156,2.729-4.576,5.924-4.469,10.056c0.463,17.911,29.162,45.119,43.702,57.073
		c13.733-13.692,40.707-44.307,39.621-61.241C242.215,213.218,240.946,210.847,238.427,209.004z M142.89,420.456
		c-1.98-0.061-3.725-1.319-4.401-3.18c-1.165-3.175-5.497-11.742-11.486-13.292c-0.621-0.161-1.26-0.241-1.917-0.241
		c-2.856,0-6.052,1.515-9.529,4.521c-2.106,1.819-3.053,3.95-2.981,6.703c0.331,12.83,20.774,32.455,31.878,41.705
		c12.652-12.707,29.633-33.758,28.927-44.757c-0.136-2.117-0.924-3.593-2.552-4.784c-3.867-2.833-7.359-3.775-10.66-2.878
		c-6.427,1.742-11.334,10.182-12.682,13.287C146.696,419.36,144.824,420.484,142.89,420.456z"/>
	<path fill="#FFC2C7" d="M493.443,1065.093c9.198,14.087,14.046,30.549,12.439,41.795c-15.953,9.361-88.678,35.086-142.824-24.443
		c1.275-24.827,6.108-86.181,14.894-102.579c0.071-0.134,0.136-0.27,0.194-0.408c1.673-3.976,11.068-8.079,23.622-7.97
		c9.924,0.058,22.498,2.92,27.331,10.601c-6.939,11.722-7.697,33.412-4.681,54.034c-10.753,4.156-21.633,11.048-33.653,21
		c-2.06,1.706-2.347,4.758-0.642,6.818c1.703,2.06,4.756,2.349,6.818,0.642c25.342-20.977,44.009-26.945,68.874-22.03
		C475.236,1044.415,485.308,1052.631,493.443,1065.093z M714.513,1120.157c15.884,10.797,70.671,4.89,91.11,1.606
		c17.709-6.93,46.235-44.85,67.14-78.223c0.832-1.329,0.612-3.075-0.526-4.152c-6.715-6.358-23.997-21.114-39.818-21.226
		c-41.588,3.314-41.719,40.575-41.788,60.606c-0.006,1.674-0.011,3.211-0.041,4.578c-0.057,2.674-2.317,4.791-4.944,4.739
		c-2.675-0.057-4.795-2.27-4.739-4.944c0.027-1.316,0.033-2.795,0.038-4.406c0.029-8.238,0.086-21.061,3.75-33.526
		c-2.353-2.793-6.381-4.762-10.087-4.762c-1.522,0-1.583,0.028-3.147,1.734c-0.8,0.899-1.624,1.766-2.475,2.585
		c-7.412,7.136-15.797,13.191-23.904,19.046l-0.385,0.277c-8.85,6.391-21.018,9.695-25.84,10.819
		c-2.987,0.697-5.883,1.04-8.639,1.04c-1.964,0-3.825-0.234-5.631-0.581C702.533,1084.235,704.019,1113.022,714.513,1120.157z"/>
	<path fill="#95BB4C" d="M346.669,1084.49c0.208-1.528,0.689-5.156,1.359-10.213c3.027-22.869,12.108-91.489,13.97-99.267
		c1.259-0.492,4.361-0.317,7.396,0.321c-0.023,0.051-0.056,0.097-0.079,0.149c-11.829,22.5-15.863,104.975-16.03,108.485
		c-0.058,1.258,0.375,2.491,1.209,3.437c28.93,32.726,64.223,42.766,94.646,42.764c27.183,0,50.471-8.015,61.853-15.023
		c0.489,0.922,0.98,2.329,1.01,3.864c0.024,1.187-0.255,1.86-0.448,2.024c-12.994,11.003-40.707,16.435-82.13,16.142
		C380.287,1136.826,348.802,1091.822,346.669,1084.49z M452.741,986.836c-3.646-3.008-7.611-4.37-10.902-3.736
		c-6.252,1.21-12.302,19.614-8.066,50.085c3.585-0.864,7.196-1.4,10.856-1.688c-1.469-5.316-1.313-11.648-1.234-13.371
		c0.361-7.816,2.261-12.841,5.643-14.938c0.766-0.474,1.649-0.727,2.551-0.727c0.006,0,0.013,0,0.021,0l1.116,0.003
		c3.109,0,6.083-0.122,8.995-0.298C460.609,996.297,457.401,990.679,452.741,986.836z M716.658,1065.474
		c8.855-2.063,17.216-5.516,22.367-9.236l0.386-0.279c7.835-5.658,15.937-11.509,22.856-18.171c0.203-0.195,0.38-0.382,0.572-0.574
		c0.008-0.008,0.01-0.02,0.019-0.029c0.514-0.514,0.954-0.996,1.36-1.441c0.103-0.113,0.212-0.228,0.317-0.341
		c2.32-2.71,3.536-5.393,3.434-9.404c-0.115-4.519-2.215-8.788-5.758-11.711c-5.379-4.434-12.433-5.052-18.882-1.658
		c-0.398,0.21-0.804,0.474-1.207,0.715c1.452,4.213,2.905,8.732,4.377,13.635c0.213,0.706,0.26,1.453,0.14,2.182
		c-0.148,0.899-1.044,5.547-4.092,8.851c-6.176,6.684-14.065,10.724-23.45,12.012c-0.222,0.031-0.445,0.046-0.664,0.046
		c-2.215,0-4.188-1.521-4.709-3.733c-0.975-4.139-2.144-8.071-3.396-11.909c-4.576,2.314-9.25,5.385-12.076,9.639
		c-3.615,5.435-3.757,14.355,1.789,18.972C705.193,1067.328,712.662,1066.403,716.658,1065.474z M723.946,1137.838
		c7.953,2.763,69.221,5.375,95.318-5.289c24.153-9.865,63.776-68.073,66.538-77.266c-0.507-2.501-2.476-5.473-4.375-7.495
		c-0.155,0.298-0.276,0.607-0.457,0.895c-13.631,21.762-47.974,73.349-72.421,82.33c-0.288,0.106-0.586,0.184-0.891,0.233
		c-4.633,0.755-30.962,4.852-56.14,4.852c-13.355,0-26.329-1.188-35.628-4.604C717.726,1134.207,720.525,1136.648,723.946,1137.838z
		"/>
	<path fill="#C6C6C6" d="M869.492,203.93c7.27,12.808,14.162,25.869,20.315,39.257c-9.791-13.854-20.946-26.702-31.954-38.234
		c-16.281-17.058-33.952-32.721-51.628-48.303c-17.397-15.336-34.58-31.989-53.554-45.436c8.125-4.731,14.434-14.359,19.202-21.768
		c4.701-7.306,9.815-16.766,11.74-26.051C811.258,110.825,842.388,156.182,869.492,203.93z"/>
</g>
</svg>
